<?xml version="1.0" standalone="no"?>
<!DOCTYPE svg PUBLIC "-//W3C//DTD SVG 20010904//EN"
 "http://www.w3.org/TR/2001/REC-SVG-20010904/DTD/svg10.dtd">
<svg version="1.0" xmlns="http://www.w3.org/2000/svg"
 width="1024.000000pt" height="1024.000000pt" viewBox="0 0 1024.000000 1024.000000"
 preserveAspectRatio="xMidYMid meet">

<g transform="translate(0.000000,1024.000000) scale(0.100000,-0.100000)"
fill="#000000" stroke="none">
<path d="M4122 9380 c-32 -13 -48 -58 -62 -175 -17 -131 -22 -145 -58 -145
-16 0 -62 -11 -102 -25 -40 -14 -79 -25 -85 -25 -6 0 -42 52 -80 116 -70 116
-112 164 -143 164 -23 0 -168 -53 -223 -80 -139 -71 -269 -168 -269 -203 0 -8
32 -77 70 -152 l71 -137 -26 -32 c-14 -17 -53 -72 -87 -122 l-61 -91 -95 28
c-116 35 -153 36 -186 7 -31 -29 -206 -443 -206 -488 0 -26 76 -89 157 -130
125 -63 123 -60 123 -162 0 -64 -3 -88 -12 -88 -43 1 -530 39 -533 42 -2 2
-20 98 -40 213 -57 332 -86 489 -95 506 -6 11 -19 14 -42 12 -79 -10 -639 -95
-803 -122 -99 -17 -216 -35 -260 -41 -277 -39 -585 -89 -624 -102 l-33 -10 6
-57 c4 -31 20 -128 36 -216 16 -88 77 -446 135 -795 57 -349 109 -654 114
-678 8 -41 7 -44 -16 -53 -13 -5 -29 -9 -34 -9 -20 0 -91 -42 -129 -76 -79
-71 -92 -174 -50 -399 12 -66 28 -154 36 -195 7 -41 27 -156 44 -255 27 -154
55 -313 125 -695 7 -41 29 -165 49 -275 236 -1306 239 -1321 281 -1387 16 -23
44 -46 80 -63 101 -50 127 -46 1310 195 110 23 226 48 258 56 32 8 62 12 67 9
6 -3 10 -35 10 -70 l0 -64 -77 -16 c-106 -23 -291 -87 -388 -135 -199 -99
-297 -221 -237 -297 26 -34 110 -70 189 -82 91 -14 379 -14 514 -1 361 36 907
150 1227 255 133 45 336 142 380 182 66 63 28 135 -92 172 -111 34 -397 64
-511 54 -73 -6 -78 -1 -95 82 -22 109 -44 94 215 146 127 25 322 65 435 88
l205 41 65 -45 c110 -77 102 -62 85 -141 -8 -38 -15 -85 -15 -104 0 -34 25
-151 55 -260 14 -49 14 -64 0 -145 -24 -139 -65 -241 -124 -309 -27 -31 -103
-76 -130 -76 -24 -1 -24 -2 -7 -12 11 -6 43 -8 75 -5 69 6 137 46 195 114 21
27 36 39 32 28 -15 -37 -19 -208 -7 -267 29 -139 147 -285 288 -357 68 -34 70
-25 9 37 -111 113 -162 207 -172 314 l-5 63 55 -105 c38 -72 72 -120 106 -152
53 -50 137 -88 194 -88 21 0 40 -8 52 -21 10 -12 49 -36 86 -55 81 -41 156
-45 244 -14 l56 19 26 -26 c15 -14 58 -45 95 -70 38 -25 72 -54 76 -66 4 -12
2 -45 -5 -76 -19 -78 -53 -214 -72 -288 -14 -56 -14 -62 1 -77 8 -9 18 -16 20
-16 3 0 15 29 28 65 35 99 41 103 138 70 45 -15 83 -31 86 -36 17 -26 22 1 21
98 0 60 2 124 7 144 l7 37 46 -12 46 -12 -1 -136 c-2 -122 0 -138 16 -146 10
-5 90 -26 178 -47 88 -21 165 -42 170 -47 6 -5 12 -39 15 -75 3 -37 10 -68 16
-70 8 -3 10 17 6 65 l-4 69 58 -8 c33 -5 112 -14 177 -20 l118 -12 -1 -46 c-2
-64 -1 -71 10 -71 6 0 10 17 10 38 0 54 10 82 29 82 9 0 28 6 43 14 17 9 30
10 36 4 7 -7 31 -6 74 0 l63 11 -67 -3 c-38 -1 -68 1 -68 5 0 4 82 8 181 11
175 3 288 -2 280 -12 -2 -3 2 -30 10 -60 l14 -55 5 64 5 64 45 12 c73 20 149
32 158 26 15 -9 42 -68 42 -89 0 -11 7 -26 17 -33 15 -13 16 -11 9 23 -4 21
-15 57 -26 80 -10 23 -16 46 -14 50 3 4 0 8 -5 8 -6 0 -11 -3 -11 -7 0 -5 -10
-9 -22 -10 -108 -10 -148 -17 -148 -25 0 -5 -5 -6 -11 -3 -29 19 14 36 196 79
94 22 241 79 269 103 15 13 28 23 30 23 2 0 18 -39 36 -88 41 -114 55 -135 80
-122 21 11 20 19 -25 135 -52 136 -90 284 -80 314 4 13 21 16 82 17 88 2 166
26 248 79 101 65 147 138 181 285 26 114 39 102 31 -28 -8 -143 -68 -260 -167
-327 -57 -38 -36 -44 50 -15 114 38 217 126 268 229 18 35 32 77 32 93 0 33 3
34 38 9 15 -10 59 -34 97 -54 219 -109 366 -85 464 78 39 64 76 183 87 273 8
71 -9 210 -35 285 l-19 55 44 58 c57 76 109 178 98 196 -4 7 -49 69 -99 138
-50 69 -94 133 -98 144 -6 14 7 34 52 82 180 192 249 442 237 854 -3 113 -9
223 -11 245 l-5 40 21 -50 c38 -91 70 -236 77 -361 15 -233 -15 -400 -98 -540
-27 -47 -50 -88 -50 -91 0 -14 87 49 138 101 111 112 169 256 193 474 14 128
7 229 -27 419 -24 134 -25 144 -10 194 22 72 20 216 -3 336 -26 131 -77 279
-173 503 -44 102 -139 320 -210 485 -152 352 -214 527 -303 863 -131 486 -189
654 -306 882 -271 529 -697 900 -1184 1030 -126 33 -279 46 -373 31 l-79 -13
-44 34 c-138 105 -369 151 -611 123 -349 -41 -715 -219 -1053 -512 -27 -24
-53 -43 -57 -43 -13 0 -77 74 -78 88 0 8 25 52 56 99 64 97 87 147 79 171 -17
56 -339 319 -401 329 -34 6 -39 2 -138 -101 l-102 -107 -120 40 c-65 23 -124
47 -130 56 -6 8 -14 75 -17 149 -5 138 -13 168 -48 186 -43 24 -428 39 -477
20z m449 -51 c29 -12 27 5 45 -250 7 -101 -10 -87 180 -150 l128 -43 95 100
c130 137 123 132 168 98 69 -51 217 -172 277 -226 l59 -54 -26 -49 c-14 -28
-49 -84 -76 -125 -28 -41 -51 -83 -51 -94 0 -10 18 -40 40 -66 22 -26 40 -52
40 -57 0 -6 -38 -54 -85 -107 -90 -103 -154 -186 -248 -324 -31 -46 -57 -79
-57 -73 0 25 201 298 307 417 34 40 63 78 63 85 0 6 -11 27 -25 45 -23 30 -28
32 -50 22 -13 -6 -22 -14 -19 -19 2 -4 -4 -12 -13 -18 -10 -6 -13 -11 -6 -11
6 0 15 5 18 10 3 6 11 10 17 10 6 0 5 -6 -3 -16 -10 -13 -10 -17 2 -25 9 -6 3
-8 -21 -4 -19 3 -30 2 -25 -2 19 -15 17 -36 -2 -29 -14 6 -16 5 -5 -5 24 -25
2 -94 -23 -71 -5 4 -5 1 -1 -5 4 -7 2 -13 -4 -13 -7 0 -8 -6 -1 -18 8 -14 6
-18 -10 -18 -13 0 -39 25 -73 71 -125 166 -273 292 -446 378 -247 123 -567
148 -847 66 -141 -41 -213 -74 -323 -150 -147 -100 -258 -237 -355 -434 -63
-130 -98 -233 -125 -370 -26 -129 -26 -165 -2 -165 16 0 20 14 31 98 37 284
182 578 376 760 124 116 227 170 452 238 75 23 112 28 245 32 180 5 245 -4
386 -52 193 -66 307 -139 448 -289 163 -174 211 -265 139 -268 -16 -1 -34 -1
-38 0 -5 1 -6 -3 -3 -8 4 -5 2 -12 -4 -16 -7 -4 -7 -12 0 -24 8 -16 6 -17 -15
-13 -14 2 -25 9 -25 16 0 6 -5 4 -10 -4 -8 -12 -10 -12 -10 -1 0 8 -3 12 -6 8
-13 -13 -64 23 -64 46 -1 16 -17 32 -55 57 -30 19 -55 40 -55 45 0 6 -29 31
-63 57 -215 160 -467 225 -716 184 -233 -39 -475 -206 -600 -414 -51 -84 -106
-243 -120 -345 -5 -39 -16 -74 -23 -78 -10 -7 -9 -9 5 -9 10 0 17 -7 17 -17 0
-15 -2 -16 -10 -3 -8 13 -10 12 -10 -2 0 -11 8 -18 20 -18 18 0 20 7 20 78 0
42 7 106 14 142 15 67 67 205 85 223 6 6 -5 -26 -24 -71 -43 -102 -65 -208
-65 -312 0 -45 -4 -79 -8 -76 -4 3 -88 10 -185 15 -98 6 -208 14 -245 17 l-68
7 0 100 1 100 -88 47 c-114 61 -125 74 -17 20 47 -23 81 -38 75 -32 -26 24
-154 99 -180 106 l-30 7 25 -22 25 -21 -25 14 c-59 35 -70 43 -70 55 0 19 102
278 151 382 23 49 48 92 56 95 15 6 82 -10 186 -45 77 -25 81 -25 101 18 20
42 127 193 150 213 9 7 16 20 16 29 0 9 -29 73 -65 141 -35 69 -65 135 -65
147 0 28 56 76 156 133 77 44 254 120 280 120 21 0 58 -46 123 -154 88 -148
80 -140 122 -122 20 8 83 26 139 39 86 19 104 27 105 43 1 10 4 28 8 39 3 11
11 64 17 118 14 131 17 135 88 139 92 5 355 -11 383 -23z m1688 -483 c-2 -2
-35 -16 -74 -31 -38 -14 -107 -46 -152 -71 -46 -25 -83 -43 -83 -40 0 3 30 22
68 43 87 49 264 121 241 99z m-319 -151 c0 -2 -10 -9 -22 -15 -22 -11 -22 -10
-4 4 21 17 26 19 26 11z m-80 -49 c0 -2 -12 -11 -27 -20 l-28 -17 24 20 c23
21 31 25 31 17z m-60 -40 c0 -2 -8 -10 -17 -17 -16 -13 -17 -12 -4 4 13 16 21
21 21 13z m-40 -29 c0 -2 -27 -25 -60 -50 -33 -26 -60 -45 -60 -42 0 4 112 95
118 95 1 0 2 -2 2 -3z m-1452 -84 c-26 -2 -71 -2 -100 0 -29 2 -8 3 47 3 55 0
79 -1 53 -3z m157 -18 c39 -14 39 -14 5 -8 -19 4 -53 10 -75 14 l-40 6 35 1
c19 0 53 -6 75 -13z m1057 -103 c-53 -54 -145 -159 -203 -233 -92 -117 -137
-182 -227 -329 -12 -19 -22 -31 -22 -26 0 28 149 248 276 407 80 99 253 279
269 279 3 0 -39 -44 -93 -98z m-962 73 c33 -19 21 -19 -21 0 -19 8 -27 14 -19
14 8 0 26 -6 40 -14z m-112 -25 c248 -60 464 -249 562 -494 l30 -74 -44 -93
c-72 -156 -140 -358 -191 -576 -26 -110 -28 -114 -75 -156 -156 -141 -424
-201 -655 -148 -107 25 -231 83 -287 133 l-37 33 12 258 c9 213 9 260 -2 267
-8 4 -61 11 -120 14 -159 10 -178 14 -185 39 -10 38 13 202 39 283 76 242 294
443 555 513 105 28 284 28 398 1z m192 -10 c22 -11 40 -23 40 -25 0 -5 -79 32
-89 41 -11 10 14 2 49 -16z m-2485 -57 c8 -33 94 -519 130 -738 14 -82 59
-354 100 -604 41 -250 74 -455 73 -456 -3 -3 -388 -50 -973 -120 -209 -25
-458 -55 -553 -67 -95 -11 -174 -19 -176 -17 -2 2 -45 254 -95 559 -51 305
-117 694 -147 864 -30 169 -54 316 -54 326 0 21 4 22 190 50 74 11 284 43 465
71 182 27 362 54 400 59 39 6 122 19 185 30 63 10 165 27 225 36 61 9 130 20
155 24 25 4 50 8 56 9 7 0 15 -11 19 -26z m2613 -27 c9 -11 -4 -5 -30 14 -27
18 -48 35 -48 37 0 8 62 -33 78 -51z m3692 -11 c13 -14 21 -25 18 -25 -2 0
-15 11 -28 25 -13 14 -21 25 -18 25 2 0 15 -11 28 -25z m-3531 -142 l33 -48
-34 40 c-18 22 -58 64 -88 94 l-55 53 55 -45 c31 -25 71 -67 89 -94z m3685
-43 c136 -178 213 -308 307 -523 22 -49 38 -91 36 -94 -2 -2 -10 11 -17 29
-41 102 -166 345 -215 418 -62 92 -169 234 -219 290 l-31 35 33 -30 c19 -17
66 -73 106 -125z m-4944 137 c0 -2 -15 -16 -32 -33 l-33 -29 29 33 c28 30 36
37 36 29z m-107 -119 c-20 -29 -41 -57 -47 -63 -13 -14 21 42 51 83 39 52 36
37 -4 -20z m4797 -128 c6 -11 8 -20 6 -20 -3 0 -10 9 -16 20 -6 11 -8 20 -6
20 3 0 10 -9 16 -20z m-2880 -60 c-6 -12 -14 -20 -17 -17 -2 3 1 14 8 26 17
26 24 19 9 -9z m2750 -65 c14 -19 14 -19 -2 -6 -10 7 -18 18 -18 24 0 6 1 8 3
6 1 -2 9 -13 17 -24z m-89 -2 c13 -16 12 -17 -3 -4 -10 7 -18 15 -18 17 0 8 8
3 21 -13z m-888 -128 c35 -79 143 -255 214 -348 53 -69 193 -212 293 -301 45
-39 56 -52 35 -43 -109 51 -305 73 -420 47 -94 -21 -205 -95 -205 -136 0 -19
9 -18 72 11 91 42 197 58 328 52 125 -7 194 -22 310 -69 125 -51 138 -68 278
-373 73 -157 96 -239 116 -412 19 -160 20 -260 3 -293 -40 -76 -27 -79 29 -7
27 35 58 99 93 192 66 172 91 218 143 255 55 40 101 40 156 1 77 -56 132 -221
117 -346 -20 -153 -80 -260 -221 -394 -95 -90 -153 -123 -247 -142 -51 -10
-60 -10 -98 10 -23 12 -43 21 -44 19 -1 -2 -10 -19 -20 -38 -10 -19 -47 -74
-83 -123 -110 -150 -250 -255 -532 -401 -189 -97 -326 -154 -455 -187 -77 -20
-114 -23 -250 -23 -144 0 -174 4 -300 33 -328 75 -563 191 -739 365 -101 100
-141 181 -249 506 -36 107 -81 233 -100 280 -19 47 -38 97 -41 112 l-6 27 39
-14 c64 -22 100 -44 112 -67 16 -31 109 -127 134 -140 16 -9 15 -5 -6 18 -37
40 -66 102 -84 176 -29 124 -14 227 45 314 64 95 144 147 245 158 35 4 43 3
25 -3 l-25 -9 25 -2 c21 -1 19 -4 -15 -16 -63 -22 -111 -68 -148 -143 -61
-122 -57 -245 10 -374 86 -163 261 -234 405 -164 179 87 228 286 123 492 -19
36 -49 85 -67 108 -30 38 -31 41 -8 26 14 -8 43 -26 64 -39 l39 -24 -24 43
c-35 63 -137 154 -216 193 -64 31 -73 33 -178 33 -104 0 -114 -2 -182 -34 -79
-37 -168 -120 -192 -178 -15 -36 -27 -39 -78 -21 -39 14 -39 11 8 142 36 100
195 356 220 356 4 0 -2 -24 -15 -52 -48 -109 -88 -220 -81 -226 3 -4 21 2 38
12 18 10 85 47 150 82 149 80 254 153 328 226 54 55 99 75 99 45 0 -25 -71
-116 -132 -170 -35 -30 -76 -67 -93 -81 -29 -25 -26 -25 82 13 158 56 182 70
356 204 147 112 310 305 408 479 23 43 44 76 46 74 2 -1 -17 -63 -42 -137 -60
-176 -159 -376 -229 -462 -83 -102 -75 -114 25 -40 103 75 248 228 323 341
121 181 202 410 231 647 7 54 9 57 18 35 5 -14 24 -56 40 -95z m-2212 -61
c-16 -33 -30 -56 -31 -52 0 12 52 119 57 114 2 -2 -9 -30 -26 -62z m3104 38
c-3 -3 -11 0 -18 7 -9 10 -8 11 6 5 10 -3 15 -9 12 -12z m-1988 -84 c-3 -7 -5
-2 -5 12 0 14 2 19 5 13 2 -7 2 -19 0 -25z m-3542 -38 c143 -11 431 -31 640
-45 209 -14 404 -28 434 -31 l53 -7 -6 -71 c-3 -39 -8 -138 -11 -221 -7 -158
-34 -537 -39 -543 -2 -2 -98 -14 -212 -28 -115 -13 -299 -35 -409 -49 -110
-13 -265 -31 -345 -40 -80 -8 -164 -18 -186 -20 l-41 -6 -7 53 c-10 77 -83
525 -106 648 -16 85 -60 361 -60 376 0 6 18 5 295 -16z m2356 -95 c-21 -61
-47 -145 -57 -187 -9 -43 -19 -76 -22 -74 -7 7 25 136 57 226 45 129 53 151
57 148 2 -2 -14 -53 -35 -113z m4038 -155 c0 -8 -7 1 -14 20 -18 46 -17 64 0
25 8 -16 14 -37 14 -45z m-4122 -152 c-3 -7 -5 -2 -5 12 0 14 2 19 5 13 2 -7
2 -19 0 -25z m1459 -40 c-7 -18 -28 -63 -47 -100 -27 -54 -38 -68 -56 -68 -26
0 -30 12 -9 29 7 6 38 47 67 91 29 44 54 80 56 80 2 0 -3 -15 -11 -32z m-1469
0 c-3 -8 -6 -5 -6 6 -1 11 2 17 5 13 3 -3 4 -12 1 -19z m-13 -62 c-3 -21 -8
-35 -11 -32 -2 2 -1 20 3 40 3 21 8 35 11 32 2 -2 1 -20 -3 -40z m-17 -83 c-3
-10 -5 -4 -5 12 0 17 2 24 5 18 2 -7 2 -21 0 -30z m-10 -60 c-3 -10 -5 -4 -5
12 0 17 2 24 5 18 2 -7 2 -21 0 -30z m-1056 -10 c13 -16 17 -22 9 -15 -23 20
-29 14 -33 -30 -3 -37 -4 -35 -5 15 -1 31 -1 57 1 57 2 0 14 -12 28 -27z m273
-124 c61 -15 100 -28 86 -28 -56 -1 -278 72 -293 96 -3 5 17 -1 45 -15 28 -13
101 -37 162 -53z m693 24 c-3 -10 -5 -2 -5 17 0 19 2 27 5 18 2 -10 2 -26 0
-35z m70 -30 c-3 -10 -5 -4 -5 12 0 17 2 24 5 18 2 -7 2 -21 0 -30z m-120 -9
c-3 -3 -12 -4 -19 -1 -8 3 -5 6 6 6 11 1 17 -2 13 -5z m-950 -56 c-2 -13 -4
-5 -4 17 -1 22 1 32 4 23 2 -10 2 -28 0 -40z m631 45 c-10 -2 -26 -2 -35 0
-10 3 -2 5 17 5 19 0 27 -2 18 -5z m240 0 c-10 -2 -28 -2 -40 0 -13 2 -5 4 17
4 22 1 32 -1 23 -4z m-360 -10 c-15 -2 -42 -2 -60 0 -18 2 -6 4 27 4 33 0 48
-2 33 -4z m265 0 c-13 -2 -33 -2 -45 0 -13 2 -3 4 22 4 25 0 35 -2 23 -4z
m-100 -10 c-13 -2 -33 -2 -45 0 -13 2 -3 4 22 4 25 0 35 -2 23 -4z m-74 -7
c-2 -2 -29 -6 -59 -9 -36 -4 -46 -3 -30 3 25 8 97 13 89 6z m458 -28 c-3 -7
-5 -2 -5 12 0 14 2 19 5 13 2 -7 2 -19 0 -25z m-608 8 c-7 -6 -240 -28 -245
-23 -3 3 32 9 78 15 89 10 174 14 167 8z m-276 -33 c-13 -2 -35 -2 -50 0 -16
2 -5 4 22 4 28 0 40 -2 28 -4z m-90 -10 c-7 -2 -19 -2 -25 0 -7 3 -2 5 12 5
14 0 19 -2 13 -5z m964 -55 c-2 -13 -4 -3 -4 22 0 25 2 35 4 23 2 -13 2 -33 0
-45z m-530 46 c-3 -3 -12 -4 -19 -1 -8 3 -5 6 6 6 11 1 17 -2 13 -5z m-80 -10
c-3 -3 -12 -4 -19 -1 -8 3 -5 6 6 6 11 1 17 -2 13 -5z m-110 -10 c-3 -3 -12
-4 -19 -1 -8 3 -5 6 6 6 11 1 17 -2 13 -5z m-69 -11 c-10 -2 -26 -2 -35 0 -10
3 -2 5 17 5 19 0 27 -2 18 -5z m-68 -9 c-21 -5 -142 -20 -390 -49 -118 -14
-305 -36 -415 -50 -110 -13 -227 -27 -260 -31 -33 -3 -127 -14 -210 -25 -82
-10 -249 -31 -369 -46 -121 -15 -214 -29 -207 -31 7 -2 77 4 156 13 79 9 152
15 162 13 18 -4 -101 -20 -440 -59 -93 -10 -214 -26 -270 -35 -142 -21 -336
-44 -372 -43 -26 0 -27 2 -10 9 11 5 36 9 55 10 19 1 27 4 18 7 -10 2 -123 -7
-253 -22 -130 -14 -242 -24 -248 -22 -7 2 17 7 53 11 116 13 550 65 750 91
107 13 274 34 370 45 203 23 1128 133 1305 155 66 8 183 21 260 30 77 9 165
19 195 24 54 8 150 12 120 5z m857 -56 c-3 -8 -6 -5 -6 6 -1 11 2 17 5 13 3
-3 4 -12 1 -19z m-1334 -25 c-7 -2 -19 -2 -25 0 -7 3 -2 5 12 5 14 0 19 -2 13
-5z m-76 -9 c-3 -3 -12 -4 -19 -1 -8 3 -5 6 6 6 11 1 17 -2 13 -5z m1396 -160
c-4 -88 -9 -145 -11 -129 -5 37 8 298 15 292 2 -3 0 -76 -4 -163z m-1506 150
c-3 -3 -12 -4 -19 -1 -8 3 -5 6 6 6 11 1 17 -2 13 -5z m1434 -215 c-6 -118
-13 -284 -16 -369 -8 -203 -23 -376 -41 -475 -8 -44 -53 -192 -99 -330 -117
-348 -129 -398 -130 -525 0 -58 3 -119 7 -137 7 -29 3 -35 -60 -88 l-67 -58
-35 229 c-19 126 -36 222 -38 214 -1 -9 11 -107 28 -218 16 -111 30 -210 30
-221 0 -10 -11 -30 -25 -45 -14 -15 -25 -32 -25 -39 0 -8 3 -8 9 2 6 10 10 10
16 1 16 -26 -28 -43 -210 -80 -102 -22 -211 -42 -241 -46 l-54 -6 0 31 c0 18
-13 114 -29 214 -16 100 -41 263 -56 362 -36 242 -31 226 -58 220 -12 -2 -76
-12 -142 -21 -66 -9 -121 -17 -122 -18 -1 -1 12 -89 28 -196 16 -107 43 -285
59 -395 17 -110 33 -212 36 -226 5 -25 2 -27 -46 -33 -27 -4 -56 -9 -63 -12
-10 -4 -21 50 -47 221 -20 136 -38 225 -44 225 -21 -1 -237 -38 -241 -41 -2
-3 12 -103 31 -224 18 -121 34 -230 34 -242 0 -15 6 -23 18 -23 24 0 144 20
467 79 473 86 549 102 584 123 39 22 39 23 -26 -56 -40 -48 -41 -68 -7 -93
l26 -20 -51 -80 c-43 -66 -58 -82 -84 -87 -18 -4 -95 -18 -172 -32 -162 -28
-492 -91 -550 -104 -22 -5 -186 -36 -365 -70 -179 -34 -413 -79 -520 -100
-107 -21 -325 -64 -485 -95 -159 -31 -337 -65 -394 -77 -158 -30 -229 -11
-250 70 -6 20 -47 235 -91 477 -45 242 -119 647 -166 900 -129 702 -194 1079
-194 1129 0 58 37 103 95 116 74 16 635 92 1145 155 63 7 363 45 665 84 303
39 827 104 1165 146 338 41 658 81 710 88 52 8 96 13 98 11 2 -1 -1 -98 -7
-215z m-1558 194 c-7 -2 -19 -2 -25 0 -7 3 -2 5 12 5 14 0 19 -2 13 -5z m-76
-9 c-3 -3 -12 -4 -19 -1 -8 3 -5 6 6 6 11 1 17 -2 13 -5z m-84 -11 c-7 -2 -19
-2 -25 0 -7 3 -2 5 12 5 14 0 19 -2 13 -5z m-420 -50 c-7 -2 -19 -2 -25 0 -7
3 -2 5 12 5 14 0 19 -2 13 -5z m-85 -10 c-10 -2 -26 -2 -35 0 -10 3 -2 5 17 5
19 0 27 -2 18 -5z m3557 -3 c14 -7 8 -8 -20 -3 -22 3 -42 7 -44 9 -9 8 45 2
64 -6z m45 -107 c16 -16 33 -42 36 -60 5 -27 1 -37 -24 -63 -38 -38 -72 -38
-114 -1 -41 36 -44 88 -8 126 31 33 71 33 110 -2z m-607 -26 c36 -31 38 -35
31 -74 l-6 -41 -55 -4 -54 -3 6 60 c7 60 19 95 33 95 4 -1 24 -15 45 -33z
m-4701 -47 c-51 -10 -107 -26 -124 -34 -39 -20 -49 -13 -14 9 14 9 58 23 98
30 112 20 145 16 40 -5z m-102 -48 c0 -4 -9 -25 -20 -47 -27 -53 -25 -103 9
-291 16 -88 39 -222 51 -299 12 -77 40 -236 62 -353 39 -214 47 -307 12 -157
-10 44 -19 82 -19 85 -24 94 -28 70 -6 -43 10 -53 15 -99 12 -102 -8 -8 -34
123 -91 450 -27 160 -61 349 -75 420 -39 203 -30 305 28 333 27 13 37 14 37 4z
m8785 -197 c317 -734 358 -843 389 -1024 17 -101 22 -271 7 -271 -4 0 -14 28
-21 63 -13 61 -154 490 -225 682 -68 186 -187 553 -232 720 -12 43 8 3 82
-170z m-4698 38 c-2 -27 -3 -5 -3 47 0 52 1 74 3 48 2 -27 2 -69 0 -95z m733
70 c0 -10 3 -35 6 -55 l7 -38 -45 0 -45 0 -6 47 c-6 54 1 63 51 63 24 0 32 -4
32 -17z m719 -85 c-2 -28 1 -42 9 -41 6 2 9 -4 6 -12 -4 -8 -14 -15 -23 -15
-24 0 -30 -8 -24 -31 5 -16 8 -17 21 -7 12 10 14 10 8 1 -12 -21 1 -15 35 16
29 27 31 33 25 71 -4 27 -3 39 4 35 13 -8 13 -90 -1 -139 -16 -58 -84 -120
-147 -136 -29 -6 -69 -9 -91 -5 -42 7 -121 57 -121 76 0 6 16 -3 35 -20 40
-35 61 -41 43 -12 -7 11 -17 17 -23 15 -5 -3 -2 1 8 9 9 8 17 23 17 33 0 17 7
19 58 17 43 -1 63 3 82 17 l25 19 -39 -10 c-22 -6 -55 -7 -75 -3 -20 4 -39 7
-42 6 -4 -1 -9 8 -12 18 -6 24 -3 25 29 4 34 -23 99 -22 125 2 26 24 59 87 59
114 0 11 3 20 6 20 3 0 4 -19 3 -42z m-1462 -215 c-2 -27 -3 -5 -3 47 0 52 1
74 3 48 2 -27 2 -69 0 -95z m572 -17 c14 -21 63 -73 109 -116 l83 -77 33 -109
c19 -60 43 -132 55 -161 l20 -51 -72 31 c-182 79 -297 282 -297 522 l0 70 22
-35 c11 -19 33 -52 47 -74z m-582 -108 c-2 -13 -4 -3 -4 22 0 25 2 35 4 23 2
-13 2 -33 0 -45z m-10 -75 c-3 -10 -5 -2 -5 17 0 19 2 27 5 18 2 -10 2 -26 0
-35z m-10 -60 c-3 -10 -5 -4 -5 12 0 17 2 24 5 18 2 -7 2 -21 0 -30z m-32
-158 c-15 -59 -57 -193 -94 -298 -37 -106 -78 -230 -91 -277 -33 -125 -38
-139 -39 -115 -1 29 50 211 97 345 22 63 53 153 70 200 16 47 40 127 53 178
13 52 25 89 27 84 2 -6 -9 -58 -23 -117z m-5 -120 c-7 -20 -14 -34 -17 -31 -3
2 1 20 8 40 17 46 25 38 9 -9z m4481 29 c30 -37 5 -187 -81 -494 -46 -159 -58
-234 -42 -244 6 -3 16 10 23 31 14 45 103 210 167 308 86 135 178 225 227 225
12 0 30 -9 40 -20 14 -16 15 -24 7 -50 -6 -17 -20 -44 -31 -59 -11 -16 -65
-113 -119 -217 -55 -104 -118 -223 -141 -265 -22 -42 -41 -82 -41 -89 0 -7 21
8 48 34 85 83 266 226 321 253 49 25 56 25 80 12 55 -31 38 -63 -130 -245
-207 -224 -219 -238 -265 -346 -25 -57 -61 -131 -80 -165 -40 -72 -142 -202
-173 -221 -12 -7 -21 -17 -21 -22 0 -19 22 -10 50 21 l29 30 9 -38 c5 -21 22
-90 37 -153 48 -205 125 -427 225 -650 92 -205 112 -271 117 -395 6 -129 -6
-206 -46 -290 -94 -202 -213 -221 -492 -79 -160 82 -254 152 -314 234 -54 74
-56 115 -11 255 35 109 35 109 36 60 1 -71 25 -197 52 -274 24 -70 90 -146
159 -185 29 -16 25 -10 -22 35 -103 99 -127 186 -154 554 -16 225 -56 576 -80
690 -29 145 -48 180 -144 280 -103 106 -136 165 -192 335 -20 63 -69 188 -108
277 -39 89 -71 173 -71 186 0 41 32 60 90 55 67 -7 89 -29 153 -153 89 -172
133 -203 236 -166 53 19 55 20 77 82 12 35 34 86 48 113 l26 49 -22 36 c-34
56 -98 141 -106 141 -4 0 -61 -18 -126 -40 -136 -46 -143 -46 -243 -23 -52 12
-73 22 -73 33 0 34 11 40 220 133 164 73 251 102 285 93 24 -6 98 -88 150
-164 55 -82 131 -158 123 -124 0 4 1 14 4 22 3 8 29 101 58 205 67 241 105
342 143 378 33 30 68 35 88 11z m-4434 -231 c-2 -32 -3 -8 -3 52 0 61 1 87 3
58 2 -29 2 -78 0 -110z m-53 -440 l6 -43 -61 -31 c-33 -16 -72 -34 -86 -40
l-25 -9 7 67 c7 85 33 187 93 373 l47 145 7 -210 c3 -115 9 -229 12 -252z m53
175 c-2 -35 -3 -7 -3 62 0 69 1 97 3 63 2 -35 2 -91 0 -125z m-3950 140 c-3
-8 -6 -5 -6 6 -1 11 2 17 5 13 3 -3 4 -12 1 -19z m40 -10 c-3 -7 -5 -2 -5 12
0 14 2 19 5 13 2 -7 2 -19 0 -25z m2806 -30 c3 -18 8 -60 11 -93 l6 -60 -13
40 c-11 35 -14 37 -19 17 -7 -25 -36 -21 -34 5 1 11 -8 17 -27 18 -20 1 -26
-2 -23 -12 3 -8 1 -11 -4 -8 -6 3 -10 1 -10 -5 0 -6 -5 -8 -12 -4 -8 5 -8 1 2
-12 8 -10 10 -16 6 -12 -5 4 -15 3 -22 -3 -9 -8 -18 -7 -31 1 -15 9 -14 10 7
4 22 -6 23 -5 11 9 -10 13 -18 14 -32 6 -11 -5 -17 -14 -14 -19 3 -5 1 -11 -4
-14 -5 -3 -11 3 -14 14 -3 11 -1 18 4 14 15 -9 10 3 -8 17 -15 13 -15 8 -9
-61 4 -41 5 -73 3 -70 -6 6 -39 222 -35 225 3 2 208 31 239 34 11 1 19 -9 22
-31z m-2826 -60 c-3 -8 -6 -5 -6 6 -1 11 2 17 5 13 3 -3 4 -12 1 -19z m6874
-140 c29 -46 66 -109 83 -141 l30 -57 0 -193 c1 -168 -21 -431 -39 -485 -3 -8
-39 18 -97 70 -102 92 -186 157 -234 181 -68 35 -161 31 -186 -7 -13 -20 -8
-84 9 -113 29 -52 14 -73 -94 -127 -54 -27 -141 -74 -194 -103 -111 -62 -133
-66 -118 -25 10 28 32 56 194 249 192 226 461 573 507 652 15 25 27 60 27 78
1 27 -4 35 -34 49 -19 9 -35 19 -35 23 0 9 65 28 102 30 22 1 34 -11 79 -81z
m-4154 49 c3 -4 -8 -7 -26 -7 -29 0 -31 -2 -21 -20 7 -14 7 -20 0 -20 -5 0
-10 6 -10 13 0 9 -3 8 -9 -2 -7 -11 -10 -9 -16 9 -4 13 -3 25 3 29 13 8 70 6
79 -2z m63 -10 c0 -5 -7 -7 -15 -3 -8 3 -14 2 -12 -2 2 -8 -7 -12 -29 -12 -13
0 -14 3 -4 15 13 15 60 17 60 2z m1655 -24 c9 -20 12 -40 8 -43 -8 -8 -74 -25
-130 -35 -50 -8 -253 -89 -364 -144 -61 -30 -107 -47 -119 -44 -24 6 -21 -8
22 -80 15 -26 28 -50 28 -52 0 -13 121 -255 143 -288 14 -21 37 -73 50 -115
14 -42 34 -101 46 -130 30 -76 24 -87 -10 -17 -16 33 -26 48 -23 33 8 -37 -2
-35 -21 3 -9 17 -19 29 -21 26 -3 -2 14 -39 37 -81 31 -58 46 -76 62 -77 21 0
21 -1 -2 -10 -13 -5 -25 -8 -26 -7 -16 21 -136 251 -201 387 -97 202 -183 361
-196 361 -4 0 -8 -9 -8 -20 0 -11 -12 -26 -27 -34 -16 -9 -43 -28 -61 -44
l-33 -28 122 -159 c67 -88 140 -182 163 -210 45 -53 116 -157 116 -169 0 -4
-4 -4 -10 -1 -17 10 -12 -2 19 -47 31 -45 48 -88 34 -87 -12 0 -84 91 -247
309 -80 107 -174 231 -207 274 -34 44 -64 87 -66 96 -8 31 211 174 408 267
193 91 453 200 481 202 11 1 23 -12 33 -36z m2162 -118 l6 -102 -145 -194
c-80 -107 -153 -201 -163 -209 -21 -18 -287 -28 -345 -13 -33 8 -36 13 -52 74
-9 35 -17 83 -17 106 -1 53 36 135 59 129 46 -14 90 -16 132 -7 54 12 164 59
156 66 -3 3 -31 -6 -63 -20 -94 -42 -179 -41 -145 0 9 11 9 15 1 15 -20 0 -12
14 19 35 36 24 38 33 8 30 -33 -4 -34 -4 -18 -15 13 -8 13 -10 -1 -10 -23 0
-28 9 -20 38 5 15 5 36 1 47 -8 21 -20 -58 -20 -135 0 -27 -4 -39 -8 -30 -4 8
-5 56 -2 105 l5 90 120 6 c66 3 134 9 150 13 71 18 214 69 265 95 53 27 55 27
63 8 4 -11 10 -66 14 -122z m-3816 118 c0 -5 2 -17 4 -28 4 -20 4 -20 -11 -1
-8 11 -14 23 -14 28 0 10 20 11 21 1z m66 -25 c-3 -7 -5 -2 -5 12 0 14 2 19 5
13 2 -7 2 -19 0 -25z m-2820 -30 c-3 -8 -6 -5 -6 6 -1 11 2 17 5 13 3 -3 4
-12 1 -19z m2830 -25 c-3 -10 -5 -4 -5 12 0 17 2 24 5 18 2 -7 2 -21 0 -30z
m1106 -7 c26 8 21 2 -10 -15 -22 -11 -23 -10 -22 26 2 31 3 33 6 10 4 -23 8
-27 26 -21z m690 -37 c31 -123 139 -464 262 -824 198 -577 223 -659 212 -673
-5 -6 -64 -29 -131 -50 -66 -22 -190 -65 -274 -97 -142 -53 -155 -56 -170 -41
-15 15 -15 16 5 16 30 0 38 18 11 23 -22 3 -22 4 -3 12 11 4 43 18 70 30 28
13 113 46 190 74 162 59 205 78 206 88 0 5 2 20 4 35 2 14 -23 103 -57 200
-33 95 -137 401 -231 681 -199 589 -156 530 -342 467 -241 -81 -375 -134 -375
-149 0 -30 126 -381 232 -649 34 -84 59 -155 55 -158 -3 -3 -20 -7 -37 -7 -29
-2 -32 2 -54 58 -67 170 -170 450 -226 613 -60 176 -62 183 -44 197 62 46 628
241 669 231 5 -1 17 -36 28 -77z m421 72 c6 -9 15 -87 41 -351 33 -331 71
-683 95 -884 11 -87 20 -168 19 -180 -1 -19 -2 -19 -9 4 -4 14 -9 43 -11 65
-2 36 -2 37 -7 10 -4 -28 -5 -27 -18 20 -32 113 -47 206 -90 530 -51 397 -58
454 -69 580 -10 101 -23 149 -39 136 -7 -6 -61 -15 -122 -21 -164 -15 -161
-16 -167 23 -2 17 0 35 6 39 12 7 178 28 262 31 33 2 70 4 82 5 12 1 24 -2 27
-7z m-1417 -43 c-3 -7 -5 -2 -5 12 0 14 2 19 5 13 2 -7 2 -19 0 -25z m-3620
-10 c-3 -8 -6 -5 -6 6 -1 11 2 17 5 13 3 -3 4 -12 1 -19z m5788 -5 c-19 -21
-24 -35 -20 -53 10 -46 24 -154 35 -265 13 -135 32 -210 100 -390 56 -150 74
-225 49 -210 -83 51 -242 154 -272 178 -33 25 -36 32 -23 39 22 12 56 81 56
112 0 32 -25 56 -59 56 -15 0 -90 -36 -176 -85 -137 -77 -175 -95 -175 -80 0
12 69 184 90 226 51 99 297 454 338 487 9 6 31 12 49 12 l34 0 -26 -27z
m-2958 -15 c-3 -8 -6 -5 -6 6 -1 11 2 17 5 13 3 -3 4 -12 1 -19z m3060 -50
c-2 -13 -4 -5 -4 17 -1 22 1 32 4 23 2 -10 2 -28 0 -40z m-1452 -87 c3 -16 13
-35 22 -43 17 -13 67 -12 95 3 15 8 20 1 33 -48 14 -51 46 -152 200 -626 18
-56 56 -167 84 -245 28 -79 51 -155 51 -169 0 -30 -17 -63 -32 -63 -24 0 -48
-34 -48 -69 0 -51 -10 -81 -26 -81 -8 0 -36 -11 -62 -24 -57 -29 -92 -21 -92
19 0 65 -50 122 -122 140 -16 4 -25 11 -23 16 3 4 12 6 20 3 8 -4 38 0 67 7
29 8 62 14 73 14 26 0 50 44 41 79 -9 37 -62 68 -107 63 -45 -6 -89 -34 -89
-57 0 -14 -7 -11 -34 16 -19 19 -41 34 -50 34 -12 0 -16 10 -16 35 0 20 -8 48
-17 63 -17 27 -17 27 3 10 48 -42 196 -11 266 54 67 64 89 178 47 248 -49 82
-110 124 -197 136 -116 15 -250 -100 -252 -216 l-1 -35 -15 28 c-19 36 -89
218 -144 376 l-43 124 30 26 c17 14 45 37 62 51 l32 25 -15 38 -16 37 27 11
c24 9 166 55 198 64 20 5 44 -16 50 -44z m355 29 c8 -5 19 -23 25 -41 8 -23
20 -35 50 -45 22 -7 48 -14 57 -14 20 0 24 -13 38 -107 5 -39 16 -113 25 -165
8 -52 29 -186 46 -298 16 -113 34 -232 39 -265 9 -59 12 -124 4 -95 -3 9 -13
21 -22 27 -16 10 -18 7 -15 -21 3 -28 -119 283 -133 340 -5 20 -2 24 17 24 44
0 52 13 45 66 -11 77 -36 164 -53 191 -16 25 -32 27 -92 11 -8 -2 -20 17 -33
52 -33 96 -98 314 -98 333 0 13 9 17 43 17 23 0 49 -5 57 -10z m-2356 -78 c5
-39 3 -56 -7 -67 -8 -8 -17 -11 -21 -8 -3 4 -6 1 -6 -6 0 -8 -7 -11 -17 -7
-17 6 -17 5 -1 -7 10 -8 15 -17 11 -20 -3 -4 2 -7 12 -7 14 0 15 3 5 15 -10
12 -9 15 5 15 10 0 15 -6 13 -17 -4 -19 -29 -22 -61 -8 -13 6 -16 4 -11 -9 4
-9 1 -16 -6 -16 -9 0 -9 -4 1 -17 10 -11 10 -14 2 -9 -8 4 -13 1 -13 -9 0 -9
4 -13 10 -10 5 3 7 0 4 -8 -8 -21 -52 -28 -59 -9 -5 13 -7 13 -18 -2 -11 -15
-12 -11 -9 22 3 30 0 41 -13 46 -15 5 -16 -1 -12 -56 3 -35 -5 2 -19 81 -14
79 -24 145 -22 146 2 2 50 12 108 22 70 12 107 15 111 8 4 -5 9 -34 13 -63z
m4592 44 c27 -13 81 -33 119 -46 39 -12 75 -27 82 -32 14 -11 101 -233 128
-326 l19 -63 -32 -167 c-32 -170 -40 -227 -67 -482 -35 -324 -36 -326 -19
-438 21 -140 14 -350 -14 -437 -52 -164 -144 -280 -312 -395 -56 -39 -97 -80
-80 -80 25 0 150 54 190 83 48 34 101 90 111 116 4 11 20 -14 49 -73 37 -79
42 -96 38 -143 -5 -53 -35 -103 -64 -103 -6 0 -18 -9 -25 -20 -13 -18 -89 -57
-89 -45 0 3 18 12 39 21 24 9 41 24 45 37 4 19 3 20 -7 6 -30 -39 -138 -75
-297 -99 -88 -13 -129 -15 -138 -8 -9 8 -11 34 -8 92 l5 81 -10 -85 c-6 -47
-14 -89 -18 -93 -13 -13 -412 -29 -525 -22 -88 6 -98 5 -93 -9 4 -9 4 -16 1
-16 -17 0 -47 103 -52 178 l-5 85 138 -6 c76 -4 136 -5 134 -3 -2 3 -60 10
-129 16 -68 6 -127 15 -131 21 -24 40 -28 900 -4 1154 18 201 41 387 57 468
10 56 13 59 60 83 28 14 95 41 150 60 118 41 172 73 193 114 9 16 21 30 28 31
6 0 1 5 -12 10 -13 5 -26 7 -29 4 -3 -3 1 -5 9 -5 8 0 10 -3 4 -8 -6 -4 -15
-18 -22 -32 -6 -14 -26 -34 -44 -44 l-34 -19 39 36 c35 34 38 40 31 73 l-6 36
48 -6 c54 -8 133 -29 211 -57 63 -22 65 -23 56 -6 -5 8 -2 8 9 -2 20 -16 23
-25 5 -15 -8 4 -9 3 -5 -2 5 -5 16 -9 25 -9 9 0 16 -6 14 -13 -1 -6 3 -11 10
-10 7 2 12 -2 13 -9 0 -6 4 -15 9 -20 5 -5 6 -2 1 6 -5 9 -3 12 6 9 8 -3 13
-10 12 -15 -2 -10 3 -12 52 -16 29 -2 30 0 43 58 6 33 14 87 16 120 2 33 8
110 13 170 5 61 8 161 8 223 -1 61 -1 112 0 112 1 0 23 -11 51 -24z m-1554
-119 c-50 -65 -174 -302 -197 -378 -31 -100 -6 -131 72 -89 40 21 58 18 27 -5
-13 -10 -4 -9 26 4 25 11 68 22 95 26 73 10 83 14 65 26 -11 8 -7 9 15 6 22
-4 36 1 53 16 30 28 28 6 -3 -31 -14 -17 -25 -37 -25 -46 0 -26 50 -73 155
-144 112 -75 108 -67 76 -176 -26 -88 -58 -300 -71 -481 -6 -77 -10 -327 -10
-555 1 -346 -2 -426 -15 -480 -26 -106 -30 -211 -11 -266 9 -26 16 -48 16 -49
0 -9 -309 32 -348 46 -29 11 -72 101 -72 151 0 20 7 64 16 97 8 34 14 76 12
94 -3 28 -5 24 -21 -33 -27 -97 -39 -161 -34 -182 5 -17 2 -18 -26 -13 -18 4
-36 11 -42 16 -5 5 -14 9 -19 9 -18 0 27 -27 57 -34 17 -4 32 -17 39 -34 7
-15 20 -39 30 -54 l18 -26 -32 8 c-18 4 -76 18 -128 30 -142 33 -178 57 -220
145 -25 51 -25 69 1 158 l21 72 44 -44 c25 -24 47 -41 50 -38 3 3 -15 32 -40
64 -44 56 -117 217 -168 368 -27 81 -26 206 2 298 20 65 22 67 53 67 l32 0 2
-158 c2 -177 18 -245 71 -295 35 -33 128 -55 257 -61 50 -2 74 -2 55 0 -19 3
-87 14 -150 26 -111 20 -116 22 -153 61 -20 22 -35 42 -33 45 3 2 20 -1 38 -7
18 -5 58 -13 88 -15 l55 -6 -60 13 c-84 18 -121 40 -128 75 -3 15 -9 90 -13
165 -7 130 -6 137 12 137 10 0 26 5 34 10 10 6 3 8 -22 3 -21 -3 -38 -1 -38 4
0 15 156 43 269 47 109 5 241 27 299 51 l32 14 0 -243 c0 -134 -3 -257 -6
-273 -4 -22 -19 -38 -57 -61 -29 -18 -48 -32 -44 -32 16 0 73 30 97 51 l25 21
2 252 c2 141 10 328 20 428 9 98 14 180 11 184 -9 9 -184 23 -287 24 -148 0
-101 -9 75 -15 87 -3 167 -8 178 -11 17 -6 18 -14 11 -113 -7 -111 -18 -188
-29 -198 -12 -12 -230 -52 -321 -59 -106 -8 -92 -19 -114 91 -9 46 -8 51 12
67 28 22 77 24 77 3 0 -16 25 -21 35 -6 3 5 -2 54 -10 108 -37 240 -66 463
-85 648 -26 255 -39 371 -46 416 -5 32 -3 37 22 47 55 22 353 84 363 76 2 -2
-15 -27 -37 -57z m-3025 -59 c-2 -13 -4 -5 -4 17 -1 22 1 32 4 23 2 -10 2 -28
0 -40z m10 -60 c-3 -7 -5 -2 -5 12 0 14 2 19 5 13 2 -7 2 -19 0 -25z m1023
-34 c0 -7 -16 -31 -35 -54 -19 -23 -35 -45 -35 -49 0 -4 30 -32 68 -61 126
-102 247 -213 377 -349 51 -54 66 -74 56 -80 -8 -5 -11 -13 -8 -18 3 -5 2 -15
-3 -22 -5 -10 -70 47 -230 202 -122 119 -253 237 -291 262 -38 25 -69 50 -69
55 0 4 32 43 72 85 66 70 73 75 85 59 7 -10 13 -23 13 -30z m-1013 -26 c-3 -7
-5 -2 -5 12 0 14 2 19 5 13 2 -7 2 -19 0 -25z m-210 -45 c-3 -10 -5 -4 -5 12
0 17 2 24 5 18 2 -7 2 -21 0 -30z m1323 -43 c12 -16 19 -30 16 -30 -2 0 -14
14 -26 30 -12 17 -19 30 -16 30 2 0 14 -13 26 -30z m-1252 -26 c32 4 78 10
105 15 26 4 47 5 47 1 0 -6 -178 -40 -207 -40 -5 0 -9 15 -10 33 0 22 1 25 4
8 5 -23 7 -23 61 -17z m3885 4 c-11 -13 -65 -75 -120 -140 l-101 -116 -51 119
c-54 128 -69 184 -21 84 16 -33 29 -52 29 -41 1 10 -8 34 -20 52 l-21 34 54 1
c85 1 143 -2 148 -10 11 -15 60 -7 87 15 36 30 42 30 16 2z m297 3 c0 -5 -9
-7 -20 -4 -11 3 -20 7 -20 9 0 2 9 4 20 4 11 0 20 -4 20 -9z m-80 -46 c0 -19
-4 -35 -10 -35 -5 0 -10 16 -10 35 0 19 5 35 10 35 6 0 10 -16 10 -35z m-750
7 c0 -5 -7 -17 -15 -28 -14 -18 -14 -18 -9 3 4 15 1 23 -13 26 -12 3 -9 5 10
6 15 0 27 -3 27 -7z m976 -33 c3 -6 -5 -3 -20 6 -14 10 -26 19 -26 22 0 7 39
-17 46 -28z m-1096 6 c0 -2 -10 -9 -22 -15 -22 -11 -22 -10 -4 4 21 17 26 19
26 11z m-2173 -41 c9 -14 45 -44 80 -66 35 -22 63 -42 63 -44 0 -3 -4 -2 -10
1 -18 11 -10 -14 11 -33 11 -11 21 -32 23 -48 3 -26 7 -29 42 -32 l39 -3 -45
47 c-25 26 -6 12 43 -31 48 -43 87 -80 87 -82 0 -3 -21 13 -47 33 -46 37 -45
36 17 -32 69 -76 93 -94 83 -66 -3 9 8 1 25 -18 17 -19 31 -43 32 -52 0 -21
-26 -24 -37 -4 -8 15 -431 304 -490 336 l-32 17 34 33 c19 19 35 42 35 52 0
27 27 22 47 -8z m2123 11 c0 -2 -10 -9 -22 -15 -22 -11 -22 -10 -4 4 21 17 26
19 26 11z m1195 -15 c10 -11 16 -20 13 -20 -3 0 -13 9 -23 20 -10 11 -16 20
-13 20 3 0 13 -9 23 -20z m705 -19 c11 -29 115 -141 176 -193 25 -20 36 -43
53 -107 40 -149 91 -539 91 -702 0 -100 -2 -111 -34 -180 -19 -41 -38 -87 -41
-102 -9 -34 -24 -45 -18 -13 3 13 -2 37 -11 52 -19 35 -19 33 -17 -131 2 -142
6 -169 24 -159 7 4 4 -2 -6 -12 -17 -18 -18 -18 -42 11 -50 61 -165 234 -203
306 -37 71 -46 108 -82 310 -22 124 6 517 55 763 14 72 25 142 25 158 0 36 14
36 30 -1z m-1969 -11 c-22 -19 -41 -26 -41 -15 0 5 51 34 60 34 3 0 -6 -9 -19
-19z m-830 -37 c56 -47 78 -145 42 -185 -28 -31 -50 -23 -51 20 -1 25 -9 43
-23 54 -27 23 -39 15 -39 -27 0 -73 -44 -118 -114 -117 -29 1 -46 7 -58 22
-53 66 -35 179 37 226 35 23 40 13 21 -42 -23 -67 -21 -114 3 -114 27 0 38 18
45 82 13 104 70 137 137 81z m1734 -63 c-3 -5 -12 -10 -18 -10 -7 0 -6 4 3 10
19 12 23 12 15 0z m-3128 -16 c-3 -3 -12 -4 -19 -1 -8 3 -5 6 6 6 11 1 17 -2
13 -5z m83 -5 c11 -7 4 -8 -25 -3 -50 8 -58 14 -19 14 16 0 36 -5 44 -11z
m-143 -5 c-3 -3 -12 -4 -19 -1 -8 3 -5 6 6 6 11 1 17 -2 13 -5z m-50 -10 c-3
-3 -12 -4 -19 -1 -8 3 -5 6 6 6 11 1 17 -2 13 -5z m-44 -11 c-7 -2 -19 -2 -25
0 -7 3 -2 5 12 5 14 0 19 -2 13 -5z m-123 -24 c-41 -10 -88 -18 -105 -18 -16
1 8 9 55 19 111 24 146 23 50 -1z m-147 -26 c-7 -2 -19 -2 -25 0 -7 3 -2 5 12
5 14 0 19 -2 13 -5z m-50 -10 c-7 -2 -19 -2 -25 0 -7 3 -2 5 12 5 14 0 19 -2
13 -5z m-50 -10 c-7 -2 -19 -2 -25 0 -7 3 -2 5 12 5 14 0 19 -2 13 -5z m-56
-9 c-3 -3 -12 -4 -19 -1 -8 3 -5 6 6 6 11 1 17 -2 13 -5z m3292 -24 c11 0 22
-4 25 -9 4 -5 26 -3 53 5 25 8 48 12 51 9 7 -7 -63 -35 -90 -36 -23 0 -23 0 2
-10 14 -6 33 -8 44 -5 17 4 18 1 12 -47 -53 -423 -70 -806 -56 -1222 5 -165
10 -312 10 -327 0 -26 -3 -28 -47 -30 l-48 -1 48 -6 48 -6 4 -85 c3 -47 7
-107 10 -135 4 -27 3 -45 -2 -40 -5 6 -42 8 -93 5 l-85 -5 70 -13 c39 -7 86
-14 105 -16 20 -1 12 -3 -20 -4 -30 0 -84 5 -120 12 -79 15 -96 38 -106 142
-6 59 -3 83 17 145 22 69 24 85 19 239 -3 91 -5 318 -4 505 1 450 29 697 99
876 17 44 17 48 2 64 -25 24 -21 30 8 11 13 -9 33 -16 44 -16z m-3364 9 c-64
-18 -556 -110 -572 -107 -10 2 4 8 30 12 27 4 157 29 290 56 224 45 327 61
252 39z m-168 -55 c-3 -3 -12 -4 -19 -1 -8 3 -5 6 6 6 11 1 17 -2 13 -5z
m1767 -13 c22 -24 15 -51 -19 -71 -43 -26 -159 -145 -182 -186 -18 -32 -5 -23
73 54 101 100 173 143 242 144 45 0 87 -24 96 -55 7 -26 -3 -67 -16 -67 -15 0
-120 -70 -156 -104 -44 -41 -165 -186 -155 -186 4 1 33 29 63 64 65 74 125
121 226 177 l74 40 31 -21 c65 -47 62 -123 -7 -170 -58 -39 -205 -162 -200
-167 2 -2 41 23 87 55 99 71 174 112 203 112 21 0 65 -25 78 -44 13 -20 -19
-68 -106 -156 -69 -70 -85 -91 -72 -96 19 -7 127 -117 183 -186 48 -60 56 -44
10 20 l-35 48 116 22 c64 13 122 28 129 34 21 17 23 5 8 -39 -8 -22 -20 -80
-27 -128 l-12 -86 61 -182 c34 -100 64 -196 68 -213 19 -98 -153 -224 -307
-224 -165 0 -316 193 -354 450 -12 85 -18 180 -11 180 1 0 34 -7 72 -15 83
-17 105 -18 105 -5 0 6 -10 10 -22 10 -37 0 -126 46 -193 100 -89 71 -284 277
-322 341 -23 39 -37 80 -48 147 -15 89 -15 95 4 164 11 39 32 87 46 107 81
118 221 186 269 132z m-224 -21 c0 -5 -7 -10 -16 -10 -8 0 -12 5 -9 10 3 6 10
10 16 10 5 0 9 -4 9 -10z m-1971 -24 c-2 -2 -85 -20 -184 -40 -205 -42 -224
-47 -140 -41 33 3 56 3 50 1 -14 -7 -345 -72 -435 -86 -41 -7 -104 -19 -139
-27 -35 -7 -65 -12 -68 -10 -4 5 130 37 156 37 9 0 23 5 31 11 18 12 -21 6
-155 -21 -150 -31 -377 -71 -381 -67 -2 2 206 45 463 96 726 142 814 159 802
147z m-22 -32 c-3 -3 -12 -4 -19 -1 -8 3 -5 6 6 6 11 1 17 -2 13 -5z m-44 -11
c-7 -2 -19 -2 -25 0 -7 3 -2 5 12 5 14 0 19 -2 13 -5z m6488 -133 c22 -32 62
-76 89 -99 26 -22 77 -84 114 -138 76 -111 78 -106 -44 -117 l-76 -6 -28 72
c-38 97 -146 409 -146 422 0 6 11 -8 25 -32 13 -24 43 -69 66 -102z m-7418
-47 c-7 -2 -19 -2 -25 0 -7 3 -2 5 12 5 14 0 19 -2 13 -5z m4137 -348 c0 -12
-107 -41 -117 -32 -2 3 21 11 52 17 47 10 55 15 49 28 -3 10 -8 28 -11 42 -3
20 -1 18 12 -9 8 -18 15 -39 15 -46z m3551 -13 c-5 -10 -28 -43 -50 -72 -23
-30 -41 -61 -42 -70 0 -8 -14 14 -30 49 -16 35 -28 65 -27 66 2 1 21 5 43 9
29 5 36 4 25 -3 -8 -6 -23 -11 -32 -11 -22 0 -22 1 -3 -45 l16 -37 22 24 c23
23 57 73 57 83 0 3 -8 5 -17 5 -15 0 -16 2 -3 10 8 5 23 10 33 10 14 0 16 -4
8 -18z m-3696 -32 c-11 -5 -31 -8 -45 -8 -23 0 -22 1 5 8 42 11 65 11 40 0z
m-118 -26 c-3 -3 -12 -4 -19 -1 -8 3 -5 6 6 6 11 1 17 -2 13 -5z m-3537 -117
c0 -2 -17 -19 -37 -38 l-38 -34 34 38 c33 34 41 42 41 34z m6082 -749 c-50
-99 -105 -179 -116 -167 -3 3 31 67 76 142 45 75 84 134 86 132 3 -2 -18 -51
-46 -107z m-426 7 c-27 -19 -53 -35 -57 -35 -4 0 -16 -3 -26 -6 -10 -3 7 8 37
26 30 17 59 35 64 40 6 6 15 10 20 10 6 0 -11 -16 -38 -35z m-38 -290 c-2 -3
-42 -12 -89 -20 -46 -9 -94 -18 -106 -20 -13 -3 -23 -1 -23 3 0 5 44 16 98 24
113 18 127 20 120 13z m-431 -41 c-3 -3 -12 -4 -19 -1 -8 3 -5 6 6 6 11 1 17
-2 13 -5z m161 0 c-12 -12 -230 -35 -368 -38 l-145 -4 125 10 c69 5 168 15
220 23 105 14 176 18 168 9z m27 -191 c5 -111 4 -162 -4 -175 -6 -10 -11 -25
-11 -33 0 -12 -4 -11 -20 5 -11 11 -33 20 -49 20 -37 0 -41 12 -41 114 0 45
-7 108 -15 141 -9 32 -12 62 -8 66 7 7 28 10 119 17 21 2 22 -3 29 -155z m262
102 c6 -27 12 -73 12 -102 1 -43 -3 -54 -19 -63 -19 -10 -20 -8 -20 37 0 26
-7 75 -15 108 -19 78 -19 77 7 73 18 -2 25 -13 35 -53z m-1077 -5 c52 -5 124
-10 160 -10 36 0 72 -5 80 -10 12 -7 16 -37 18 -137 4 -149 1 -155 -75 -142
-27 4 -111 11 -188 15 -77 3 -148 11 -157 16 -16 7 -18 24 -18 123 0 62 5 126
10 140 9 24 14 26 43 21 17 -3 75 -10 127 -16z"/>
<path d="M5093 8768 c-25 -43 -35 -71 -23 -63 5 3 17 23 26 43 10 20 19 40 21
45 2 4 2 7 0 7 -3 0 -14 -15 -24 -32z"/>
<path d="M5435 8700 c-4 -11 -12 -20 -18 -19 -29 3 -42 -3 -22 -11 l20 -8 -20
-8 c-27 -10 -35 -23 -35 -58 0 -27 5 -23 50 43 53 77 55 81 41 81 -5 0 -13 -9
-16 -20z"/>
<path d="M5010 8586 c0 -8 4 -17 9 -20 5 -4 7 3 4 14 -6 23 -13 26 -13 6z"/>
<path d="M5336 8525 c-8 -23 -8 -27 3 -21 5 4 11 0 14 -6 2 -7 6 -11 9 -8 3 3
-1 15 -7 28 -11 20 -13 21 -19 7z"/>
<path d="M2922 7815 c0 -16 2 -22 5 -12 2 9 2 23 0 30 -3 6 -5 -1 -5 -18z"/>
<path d="M3263 7661 c-3 -11 -12 -22 -22 -24 -9 -3 -4 -5 12 -6 22 -1 27 3 27
24 0 30 -10 33 -17 6z"/>
<path d="M3303 7633 c9 -2 25 -2 35 0 9 3 1 5 -18 5 -19 0 -27 -2 -17 -5z"/>
<path d="M4194 7946 c-129 -41 -236 -132 -296 -254 -31 -63 -33 -72 -33 -177
0 -103 2 -114 32 -177 41 -87 75 -129 146 -183 106 -81 246 -116 366 -91 217
45 380 229 381 428 0 157 -96 327 -230 406 -95 55 -268 78 -366 48z m287 -56
c111 -43 203 -141 247 -262 9 -26 15 -78 16 -129 0 -80 -2 -92 -37 -162 -44
-90 -108 -152 -206 -199 -62 -31 -73 -33 -171 -33 -100 0 -108 2 -180 36 -80
39 -156 106 -196 174 -29 50 -54 145 -54 205 0 169 124 326 305 387 59 19 206
11 276 -17z"/>
<path d="M1968 8123 c7 -3 16 -2 19 1 4 3 -2 6 -13 5 -11 0 -14 -3 -6 -6z"/>
<path d="M1738 8083 c7 -3 16 -2 19 1 4 3 -2 6 -13 5 -11 0 -14 -3 -6 -6z"/>
<path d="M1938 8073 c6 -2 18 -2 25 0 6 3 1 5 -13 5 -14 0 -19 -2 -12 -5z"/>
<path d="M1873 8063 c9 -2 23 -2 30 0 6 3 -1 5 -18 5 -16 0 -22 -2 -12 -5z"/>
<path d="M1808 8053 c7 -3 16 -2 19 1 4 3 -2 6 -13 5 -11 0 -14 -3 -6 -6z"/>
<path d="M1628 8023 c7 -3 16 -2 19 1 4 3 -2 6 -13 5 -11 0 -14 -3 -6 -6z"/>
<path d="M1448 7993 c7 -3 16 -2 19 1 4 3 -2 6 -13 5 -11 0 -14 -3 -6 -6z"/>
<path d="M2018 7973 c7 -3 16 -2 19 1 4 3 -2 6 -13 5 -11 0 -14 -3 -6 -6z"/>
<path d="M1958 7963 c6 -2 18 -2 25 0 6 3 1 5 -13 5 -14 0 -19 -2 -12 -5z"/>
<path d="M1898 7953 c6 -2 18 -2 25 0 6 3 1 5 -13 5 -14 0 -19 -2 -12 -5z"/>
<path d="M2008 7943 c7 -3 16 -2 19 1 4 3 -2 6 -13 5 -11 0 -14 -3 -6 -6z"/>
<path d="M1948 7933 c7 -3 16 -2 19 1 4 3 -2 6 -13 5 -11 0 -14 -3 -6 -6z"/>
<path d="M1718 7923 c7 -3 16 -2 19 1 4 3 -2 6 -13 5 -11 0 -14 -3 -6 -6z"/>
<path d="M1818 7913 c7 -3 16 -2 19 1 4 3 -2 6 -13 5 -11 0 -14 -3 -6 -6z"/>
<path d="M1418 7873 c7 -3 16 -2 19 1 4 3 -2 6 -13 5 -11 0 -14 -3 -6 -6z"/>
<path d="M1358 7863 c7 -3 16 -2 19 1 4 3 -2 6 -13 5 -11 0 -14 -3 -6 -6z"/>
<path d="M1228 7843 c7 -3 16 -2 19 1 4 3 -2 6 -13 5 -11 0 -14 -3 -6 -6z"/>
<path d="M1090 7520 c-13 -8 -13 -10 1 -10 11 0 18 -13 23 -41 4 -23 9 -39 12
-36 7 7 -6 97 -15 97 -3 0 -13 -5 -21 -10z"/>
<path d="M1180 7508 c0 -13 9 -84 20 -158 11 -74 20 -136 20 -138 0 -2 13 7
29 20 15 13 72 58 125 101 91 74 97 80 82 96 -38 42 -186 101 -253 101 -17 0
-23 -6 -23 -22z"/>
<path d="M1030 7500 c-18 -12 -2 -12 25 0 13 6 15 9 5 9 -8 0 -22 -4 -30 -9z"/>
<path d="M959 7459 l-24 -20 28 17 c15 9 27 18 27 20 0 8 -8 4 -31 -17z"/>
<path d="M894 7408 l-29 -33 33 29 c17 17 32 31 32 33 0 8 -8 1 -36 -29z"/>
<path d="M1132 7390 c0 -14 2 -19 5 -12 2 6 2 18 0 25 -3 6 -5 1 -5 -13z"/>
<path d="M848 7348 c-23 -37 -40 -86 -35 -100 4 -8 6 -6 6 5 1 10 12 40 26 67
26 52 28 67 3 28z"/>
<path d="M1995 7351 c23 -5 31 -13 36 -36 5 -22 7 -24 8 -8 2 39 -9 53 -43 52
l-31 -1 30 -7z"/>
<path d="M1142 7325 c0 -16 2 -22 5 -12 2 9 2 23 0 30 -3 6 -5 -1 -5 -18z"/>
<path d="M1640 7304 c0 -31 49 -347 55 -352 7 -7 74 8 80 17 5 9 -51 337 -61
352 -3 5 -21 9 -40 9 -30 0 -34 -3 -34 -26z m48 -1 c-24 -6 -23 -23 1 -18 16
3 21 -8 35 -85 19 -106 20 -125 1 -82 -15 34 -35 43 -34 15 2 -57 26 -148 40
-148 10 0 13 11 12 45 l-2 45 10 -40 c5 -21 7 -45 5 -52 -8 -19 -44 -16 -50 5
-15 49 -36 209 -31 230 3 13 2 21 -4 18 -5 -3 -11 12 -13 34 -3 37 -2 40 22
39 17 -1 19 -3 8 -6z"/>
<path d="M1962 7285 c0 -16 2 -22 5 -12 2 9 2 23 0 30 -3 6 -5 -1 -5 -18z"/>
<path d="M1152 7255 c0 -16 2 -22 5 -12 2 9 2 23 0 30 -3 6 -5 -1 -5 -18z"/>
<path d="M2041 7263 c-1 -12 8 -69 19 -125 25 -131 26 -128 -10 -128 -24 0
-31 5 -36 28 -16 71 -24 87 -18 38 8 -72 12 -76 55 -76 31 0 39 4 39 18 -1 29
-48 268 -49 245z"/>
<path d="M1972 7230 c-1 -14 3 -43 7 -65 6 -26 9 -31 9 -15 1 14 -3 43 -7 65
-6 26 -9 31 -9 15z"/>
<path d="M801 7179 c-1 -67 8 -119 21 -119 5 0 6 5 2 11 -3 6 -10 46 -14 88
-7 73 -7 74 -9 20z"/>
<path d="M1161 7204 c0 -11 3 -14 6 -6 3 7 2 16 -1 19 -3 4 -6 -2 -5 -13z"/>
<path d="M1161 7143 c-10 -26 -10 -27 4 -9 8 11 15 23 15 28 0 15 -7 8 -19
-19z"/>
<path d="M1134 7091 c-12 -12 -229 -64 -271 -65 l-31 -1 21 -39 c12 -21 39
-53 59 -71 37 -31 137 -90 142 -83 7 10 96 261 93 264 -2 2 -8 0 -13 -5z m-20
-45 c-3 -8 -11 -13 -18 -10 -16 6 -55 -124 -49 -162 4 -26 3 -27 -10 -11 -8 9
-25 17 -38 17 -13 0 -44 17 -69 39 -43 37 -44 39 -27 58 9 11 17 24 17 30 0
14 116 49 172 52 20 1 26 -3 22 -13z"/>
<path d="M1457 6949 c12 -12 24 -21 27 -18 2 2 -8 13 -22 23 l-27 19 22 -24z"/>
<path d="M6033 6653 c4 -6 24 -13 44 -16 52 -9 171 -68 211 -105 47 -45 39
-23 -10 27 -24 24 -66 55 -95 68 -55 25 -161 44 -150 26z"/>
<path d="M7530 6554 c-36 -7 -93 -28 -128 -45 -63 -31 -183 -133 -204 -173 -6
-12 11 -1 38 24 104 97 197 146 346 185 73 19 84 24 53 24 -22 0 -69 -7 -105
-15z"/>
<path d="M7989 6443 c-44 -21 -49 -21 -100 -7 -89 24 -223 29 -304 10 -136
-32 -289 -127 -360 -224 -19 -26 -35 -50 -35 -53 0 -4 11 -14 25 -23 25 -17
27 -16 68 19 77 66 232 130 364 149 86 12 232 -23 303 -74 16 -11 39 -20 53
-20 25 0 75 32 91 59 5 8 33 40 62 73 62 67 69 86 19 57 -40 -24 -148 -38
-159 -21 -4 6 1 23 10 36 24 38 14 43 -37 19z"/>
<path d="M8536 6129 c-30 -28 -64 -73 -76 -100 l-23 -49 21 -47 c31 -70 31
-83 0 -140 -22 -41 -25 -53 -14 -53 8 0 23 16 32 35 9 19 21 35 26 35 7 0 8
17 3 48 -11 71 -9 148 5 167 4 6 10 19 13 30 6 17 4 17 -13 -4 -11 -13 -20
-19 -20 -15 1 14 26 44 37 44 6 0 13 9 16 20 3 11 9 20 14 18 4 -1 22 5 39 15
l32 16 28 -42 c15 -23 31 -58 35 -77 l7 -35 1 38 c2 63 -53 147 -97 147 -7 0
-37 -23 -66 -51z"/>
<path d="M8536 5817 c-3 -13 -17 -40 -30 -60 -14 -20 -19 -34 -12 -31 12 5 66
93 66 108 0 16 -19 3 -24 -17z"/>
<path d="M6980 5750 c-176 -22 -440 -92 -505 -134 -13 -8 -26 -28 -29 -43 -15
-69 65 -254 159 -364 134 -158 291 -214 442 -158 44 17 74 38 124 89 106 107
155 230 166 410 7 126 -7 170 -60 187 -51 17 -206 24 -297 13z m233 -29 l28
-6 -21 -23 c-30 -32 -105 -67 -207 -99 -75 -22 -107 -26 -218 -27 -98 -1 -144
3 -187 17 -32 10 -58 21 -58 26 0 10 215 77 290 91 125 23 317 34 373 21z
m-93 -212 c77 -12 170 -52 170 -72 0 -37 -43 -149 -78 -203 -139 -214 -339
-241 -528 -70 -84 75 -119 128 -104 155 31 58 209 161 322 186 78 17 134 18
218 4z"/>
<path d="M8350 5710 c-13 -9 -13 -10 0 -10 8 0 22 5 30 10 13 9 13 10 0 10 -8
0 -22 -5 -30 -10z"/>
<path d="M8418 5683 c7 -3 16 -2 19 1 4 3 -2 6 -13 5 -11 0 -14 -3 -6 -6z"/>
<path d="M1960 6429 c-23 -5 -10 -5 35 -2 39 3 72 7 74 9 7 7 -72 2 -109 -7z"/>
<path d="M1608 6383 c6 -2 18 -2 25 0 6 3 1 5 -13 5 -14 0 -19 -2 -12 -5z"/>
<path d="M1448 6363 c7 -3 16 -2 19 1 4 3 -2 6 -13 5 -11 0 -14 -3 -6 -6z"/>
<path d="M4400 6273 c-87 -29 -420 -182 -420 -194 0 -5 29 -27 65 -50 36 -22
65 -44 65 -48 0 -7 -137 -176 -277 -343 -36 -43 -72 -78 -80 -78 -14 0 -92 40
-252 127 -36 20 -46 22 -57 11 -27 -28 -353 -558 -357 -582 -1 -6 16 -16 37
-23 38 -13 40 -12 69 14 16 15 94 114 173 220 l144 192 153 -74 c83 -41 157
-75 163 -75 9 0 213 248 401 487 10 13 20 10 78 -22 36 -21 68 -35 71 -32 3 3
10 49 15 104 5 54 15 157 23 228 7 72 11 133 7 136 -3 4 -13 4 -21 2z"/>
<path d="M1938 5893 c-9 -2 -15 -10 -12 -18 3 -7 18 -87 33 -177 l28 -163 38
2 c21 2 39 4 40 5 1 2 -8 62 -20 133 -12 72 -26 151 -29 178 -7 43 -9 47 -34
46 -15 -1 -35 -3 -44 -6z"/>
<path d="M1668 5866 c-37 -6 -69 -14 -72 -17 -3 -2 0 -24 5 -48 5 -24 19 -97
30 -163 27 -162 28 -165 74 -160 33 4 36 7 31 28 -4 13 -9 44 -12 68 l-6 43
38 7 c93 18 134 59 134 133 0 52 -19 85 -60 105 -40 20 -67 21 -162 4z m126
-72 c21 -21 20 -67 -1 -87 -10 -8 -34 -18 -54 -22 l-36 -7 -10 61 c-9 57 -8
60 11 64 46 9 75 6 90 -9z"/>
<path d="M2274 5840 c-19 -7 -21 -14 -15 -42 7 -31 10 -33 46 -31 21 2 40 5
42 7 2 2 1 20 -2 40 -8 38 -25 45 -71 26z"/>
<path d="M1470 5834 c-8 -3 -35 -44 -60 -91 -25 -48 -50 -89 -55 -90 -7 -2
-16 29 -22 72 -6 42 -12 77 -14 79 -2 2 -21 1 -42 -2 -39 -4 -39 -5 -32 -41 4
-20 19 -103 34 -186 l26 -150 35 3 c19 2 37 5 39 7 1 2 -4 43 -12 92 -8 48
-13 90 -11 92 2 2 39 -33 83 -78 63 -64 85 -81 108 -81 65 1 62 15 -20 98 -42
44 -77 86 -77 93 0 8 22 53 49 102 l49 87 -31 -1 c-18 -1 -39 -3 -47 -5z"/>
<path d="M2297 5663 c-15 -4 -17 -11 -11 -36 8 -41 7 -41 49 -33 36 7 39 14
29 54 -6 22 -25 26 -67 15z"/>
<path d="M4420 5480 l-25 -8 28 -1 c15 -1 27 4 27 9 0 6 -1 10 -2 9 -2 -1 -14
-5 -28 -9z"/>
<path d="M4338 5463 c6 -2 18 -2 25 0 6 3 1 5 -13 5 -14 0 -19 -2 -12 -5z"/>
<path d="M4278 5453 c6 -2 18 -2 25 0 6 3 1 5 -13 5 -14 0 -19 -2 -12 -5z"/>
<path d="M4453 5415 c0 -27 2 -38 4 -22 2 15 2 37 0 50 -2 12 -4 0 -4 -28z"/>
<path d="M4203 5443 c9 -2 23 -2 30 0 6 3 -1 5 -18 5 -16 0 -22 -2 -12 -5z"/>
<path d="M4140 5423 c0 -10 4 -14 8 -8 4 6 11 13 16 18 5 4 2 7 -7 7 -10 0
-17 -8 -17 -17z"/>
<path d="M2372 5400 c-49 -30 -72 -75 -72 -143 0 -123 77 -205 183 -194 91 8
142 71 134 168 -7 78 -37 141 -79 167 -46 29 -121 29 -166 2z m152 -94 c23
-50 21 -141 -4 -166 -39 -39 -102 -21 -126 35 -19 45 -18 135 1 162 32 45 101
29 129 -31z"/>
<path d="M2220 5390 c-19 -4 -73 -13 -120 -20 -47 -7 -88 -14 -91 -16 -4 -2
-4 -15 -1 -30 4 -24 7 -26 48 -19 l43 6 7 -48 c4 -26 14 -91 23 -143 l16 -95
35 3 c19 2 36 5 37 6 1 1 -8 65 -21 144 -25 157 -29 143 42 157 21 4 32 12 32
23 0 30 -14 39 -50 32z"/>
<path d="M4152 5340 c0 -19 2 -27 5 -17 2 9 2 25 0 35 -3 9 -5 1 -5 -18z"/>
<path d="M4462 5330 c0 -19 2 -27 5 -17 2 9 2 25 0 35 -3 9 -5 1 -5 -18z"/>
<path d="M1921 5342 c-38 -4 -37 15 -10 -162 7 -47 9 -98 6 -113 -13 -49 -95
-49 -121 1 -7 15 -21 78 -31 140 l-18 112 -36 -6 c-20 -4 -37 -7 -38 -8 -8 -6
50 -274 63 -293 18 -29 53 -43 102 -43 100 0 162 48 162 125 0 39 -35 246 -42
249 -2 1 -18 0 -37 -2z"/>
<path d="M4162 5275 c0 -16 2 -22 5 -12 2 9 2 23 0 30 -3 6 -5 -1 -5 -18z"/>
<path d="M4472 5260 c0 -19 2 -27 5 -17 2 9 2 25 0 35 -3 9 -5 1 -5 -18z"/>
<path d="M1449 5274 c-12 -4 -21 -45 -42 -186 -15 -100 -25 -183 -22 -186 2
-3 19 -1 37 4 30 9 33 13 36 56 l3 46 62 6 c66 8 81 0 94 -51 4 -20 12 -23 49
-23 24 0 44 2 44 6 0 3 -25 49 -57 102 -31 53 -72 126 -92 162 -31 56 -40 65
-66 67 -17 0 -37 -1 -46 -3z m51 -97 c0 -7 12 -30 26 -50 14 -21 24 -41 21
-43 -2 -3 -22 -8 -42 -11 l-38 -6 6 48 c4 26 7 56 7 67 0 11 5 16 10 13 6 -3
10 -12 10 -18z"/>
<path d="M4172 5205 c0 -16 2 -22 5 -12 2 9 2 23 0 30 -3 6 -5 -1 -5 -18z"/>
<path d="M4481 5184 c0 -21 4 -48 9 -59 5 -12 6 1 3 35 -7 66 -13 79 -12 24z"/>
<path d="M4182 5135 c0 -16 2 -22 5 -12 2 9 2 23 0 30 -3 6 -5 -1 -5 -18z"/>
<path d="M4192 5060 c0 -14 2 -19 5 -12 2 6 2 18 0 25 -3 6 -5 1 -5 -13z"/>
<path d="M4202 4995 c0 -16 2 -22 5 -12 2 9 2 23 0 30 -3 6 -5 -1 -5 -18z"/>
<path d="M3095 4989 c-22 -4 -79 -12 -126 -19 l-85 -12 4 -29 c4 -29 5 -29 51
-23 l47 6 13 -83 c25 -167 29 -179 61 -179 16 0 31 3 33 8 4 6 -24 192 -38
248 -4 19 1 22 45 28 49 7 56 14 42 46 -5 12 -16 14 -47 9z"/>
<path d="M4212 4940 c-1 -14 3 -43 7 -65 6 -26 9 -31 9 -15 1 14 -3 43 -7 65
-6 26 -9 31 -9 15z"/>
<path d="M2672 4929 c-38 -9 -43 -13 -38 -32 4 -12 15 -76 26 -142 30 -180 25
-168 63 -160 18 4 33 8 34 9 1 0 -3 25 -9 55 -14 81 1 85 65 16 51 -55 55 -58
90 -51 20 4 37 11 37 15 0 4 -23 29 -51 55 l-51 47 27 25 c24 22 27 31 22 71
-7 67 -40 96 -114 99 -32 2 -78 -2 -101 -7z m139 -86 c11 -30 -1 -50 -40 -64
-31 -12 -39 -3 -47 53 -6 43 -5 47 17 50 33 6 58 -9 70 -39z"/>
<path d="M2416 4890 c-111 -34 -137 -195 -48 -290 83 -86 222 -51 253 64 24
90 -31 204 -109 226 -43 11 -56 11 -96 0z m94 -80 c44 -47 53 -130 19 -174
-53 -68 -139 5 -139 118 0 36 5 48 26 65 36 29 61 26 94 -9z"/>
<path d="M2073 4837 c-43 -8 -53 -14 -53 -30 0 -19 50 -310 53 -314 6 -6 72
15 70 23 0 5 -4 30 -8 55 l-7 47 41 7 c22 4 55 17 73 29 31 21 33 26 33 80 -1
53 -4 61 -33 87 -36 32 -71 35 -169 16z m119 -64 c38 -34 12 -88 -47 -95 -28
-3 -30 -1 -37 46 -4 28 -5 53 -2 58 9 14 67 9 86 -9z"/>
<path d="M1828 4803 c-49 -9 -88 -21 -88 -27 0 -13 60 -319 63 -322 1 -2 50 5
109 14 107 16 107 17 101 42 -3 14 -7 27 -9 29 -2 2 -33 -2 -70 -8 -36 -7 -68
-11 -70 -9 -1 2 -7 22 -12 46 l-10 42 37 5 c95 16 93 15 86 43 -4 15 -8 28 -9
29 -2 2 -28 -2 -60 -8 -31 -7 -58 -10 -61 -7 -2 2 -6 20 -7 39 l-3 34 68 9
c65 9 68 10 65 35 -4 32 -16 34 -130 14z"/>
<path d="M1487 4750 c-20 -4 -40 -10 -44 -13 -3 -4 7 -80 24 -169 l30 -163 34
3 c19 2 35 5 35 5 1 1 -3 28 -8 60 -6 32 -7 61 -4 65 4 3 33 -20 65 -52 55
-54 60 -57 95 -51 20 4 36 10 36 13 0 4 -23 30 -51 58 l-52 53 28 32 c23 28
26 39 22 78 -7 66 -40 91 -115 90 -31 -1 -74 -5 -95 -9z m133 -69 c5 -11 10
-27 10 -35 0 -24 -37 -56 -64 -56 -26 0 -30 8 -42 73 l-6 37 46 0 c35 0 48 -5
56 -19z"/>
<path d="M2913 4355 c0 -8 6 -15 13 -15 8 0 11 6 8 15 -4 8 -9 15 -13 15 -4 0
-8 -7 -8 -15z"/>
<path d="M2843 4353 c9 -2 23 -2 30 0 6 3 -1 5 -18 5 -16 0 -22 -2 -12 -5z"/>
<path d="M2600 4321 c-85 -14 -146 -27 -135 -29 11 -1 94 11 185 27 91 16 152
29 135 29 -16 0 -100 -12 -185 -27z"/>
<path d="M2853 4333 c9 -2 25 -2 35 0 9 3 1 5 -18 5 -19 0 -27 -2 -17 -5z"/>
<path d="M2783 4323 c9 -2 25 -2 35 0 9 3 1 5 -18 5 -19 0 -27 -2 -17 -5z"/>
<path d="M2645 4305 c-80 -17 -39 -17 50 -1 39 8 57 14 40 14 -16 0 -57 -6
-90 -13z"/>
<path d="M2393 4283 c9 -2 25 -2 35 0 9 3 1 5 -18 5 -19 0 -27 -2 -17 -5z"/>
<path d="M2543 4283 c9 -2 23 -2 30 0 6 3 -1 5 -18 5 -16 0 -22 -2 -12 -5z"/>
<path d="M2333 4273 c9 -2 23 -2 30 0 6 3 -1 5 -18 5 -16 0 -22 -2 -12 -5z"/>
<path d="M2473 4273 c9 -2 25 -2 35 0 9 3 1 5 -18 5 -19 0 -27 -2 -17 -5z"/>
<path d="M2273 4263 c9 -2 23 -2 30 0 6 3 -1 5 -18 5 -16 0 -22 -2 -12 -5z"/>
<path d="M2413 4263 c9 -2 23 -2 30 0 6 3 -1 5 -18 5 -16 0 -22 -2 -12 -5z"/>
<path d="M2213 4253 c9 -2 23 -2 30 0 6 3 -1 5 -18 5 -16 0 -22 -2 -12 -5z"/>
<path d="M2353 4253 c9 -2 23 -2 30 0 6 3 -1 5 -18 5 -16 0 -22 -2 -12 -5z"/>
<path d="M2143 4243 c9 -2 25 -2 35 0 9 3 1 5 -18 5 -19 0 -27 -2 -17 -5z"/>
<path d="M2293 4243 c9 -2 23 -2 30 0 6 3 -1 5 -18 5 -16 0 -22 -2 -12 -5z"/>
<path d="M2083 4233 c9 -2 23 -2 30 0 6 3 -1 5 -18 5 -16 0 -22 -2 -12 -5z"/>
<path d="M2185 4230 c-27 -7 -27 -8 -5 -8 14 0 39 4 55 8 27 7 27 8 5 8 -14 0
-38 -4 -55 -8z"/>
<path d="M2023 4223 c9 -2 23 -2 30 0 6 3 -1 5 -18 5 -16 0 -22 -2 -12 -5z"/>
<path d="M1920 4210 c-34 -7 -34 -7 -5 -8 17 0 44 4 60 8 27 7 27 8 5 8 -14
-1 -41 -4 -60 -8z"/>
<path d="M2113 4213 c9 -2 23 -2 30 0 6 3 -1 5 -18 5 -16 0 -22 -2 -12 -5z"/>
<path d="M2043 4203 c9 -2 23 -2 30 0 6 3 -1 5 -18 5 -16 0 -22 -2 -12 -5z"/>
<path d="M1843 4193 c9 -2 23 -2 30 0 6 3 -1 5 -18 5 -16 0 -22 -2 -12 -5z"/>
<path d="M1983 4193 c9 -2 23 -2 30 0 6 3 -1 5 -18 5 -16 0 -22 -2 -12 -5z"/>
<path d="M1778 4183 c6 -2 18 -2 25 0 6 3 1 5 -13 5 -14 0 -19 -2 -12 -5z"/>
<path d="M1913 4183 c9 -2 25 -2 35 0 9 3 1 5 -18 5 -19 0 -27 -2 -17 -5z"/>
<path d="M2878 4183 c6 -2 18 -2 25 0 6 3 1 5 -13 5 -14 0 -19 -2 -12 -5z"/>
<path d="M1703 4173 c9 -2 23 -2 30 0 6 3 -1 5 -18 5 -16 0 -22 -2 -12 -5z"/>
<path d="M1858 4173 c6 -2 18 -2 25 0 6 3 1 5 -13 5 -14 0 -19 -2 -12 -5z"/>
<path d="M2813 4173 c9 -2 25 -2 35 0 9 3 1 5 -18 5 -19 0 -27 -2 -17 -5z"/>
<path d="M2915 4170 c-22 -4 -95 -15 -162 -25 -68 -10 -121 -20 -119 -23 5 -4
318 39 325 45 10 8 -7 9 -44 3z"/>
<path d="M1643 4163 c9 -2 23 -2 30 0 6 3 -1 5 -18 5 -16 0 -22 -2 -12 -5z"/>
<path d="M1798 4163 c6 -2 18 -2 25 0 6 3 1 5 -13 5 -14 0 -19 -2 -12 -5z"/>
<path d="M2753 4163 c9 -2 23 -2 30 0 6 3 -1 5 -18 5 -16 0 -22 -2 -12 -5z"/>
<path d="M1588 4153 c6 -2 18 -2 25 0 6 3 1 5 -13 5 -14 0 -19 -2 -12 -5z"/>
<path d="M1728 4153 c7 -3 16 -2 19 1 4 3 -2 6 -13 5 -11 0 -14 -3 -6 -6z"/>
<path d="M2693 4153 c9 -2 23 -2 30 0 6 3 -1 5 -18 5 -16 0 -22 -2 -12 -5z"/>
<path d="M1658 4143 c6 -2 18 -2 25 0 6 3 1 5 -13 5 -14 0 -19 -2 -12 -5z"/>
<path d="M2623 4143 c9 -2 25 -2 35 0 9 3 1 5 -18 5 -19 0 -27 -2 -17 -5z"/>
<path d="M1603 4133 c9 -2 23 -2 30 0 6 3 -1 5 -18 5 -16 0 -22 -2 -12 -5z"/>
<path d="M2563 4133 c9 -2 23 -2 30 0 6 3 -1 5 -18 5 -16 0 -22 -2 -12 -5z"/>
<path d="M1548 4123 c6 -2 18 -2 25 0 6 3 1 5 -13 5 -14 0 -19 -2 -12 -5z"/>
<path d="M2503 4123 c9 -2 23 -2 30 0 6 3 -1 5 -18 5 -16 0 -22 -2 -12 -5z"/>
<path d="M2443 4113 c9 -2 23 -2 30 0 6 3 -1 5 -18 5 -16 0 -22 -2 -12 -5z"/>
<path d="M2583 4113 c9 -2 23 -2 30 0 6 3 -1 5 -18 5 -16 0 -22 -2 -12 -5z"/>
<path d="M2275 4090 c-55 -9 -92 -18 -82 -19 18 -1 205 27 222 34 24 9 -48 1
-140 -15z"/>
<path d="M2513 4103 c9 -2 23 -2 30 0 6 3 -1 5 -18 5 -16 0 -22 -2 -12 -5z"/>
<path d="M2453 4093 c9 -2 23 -2 30 0 6 3 -1 5 -18 5 -16 0 -22 -2 -12 -5z"/>
<path d="M2408 4083 c7 -3 16 -2 19 1 4 3 -2 6 -13 5 -11 0 -14 -3 -6 -6z"/>
<path d="M2328 4073 c6 -2 18 -2 25 0 6 3 1 5 -13 5 -14 0 -19 -2 -12 -5z"/>
<path d="M2133 4063 c9 -2 23 -2 30 0 6 3 -1 5 -18 5 -16 0 -22 -2 -12 -5z"/>
<path d="M2273 4063 c9 -2 23 -2 30 0 6 3 -1 5 -18 5 -16 0 -22 -2 -12 -5z"/>
<path d="M2030 4050 c-34 -7 -34 -7 -5 -8 17 0 44 4 60 8 27 7 27 8 5 8 -14
-1 -41 -4 -60 -8z"/>
<path d="M2208 4053 c6 -2 18 -2 25 0 6 3 1 5 -13 5 -14 0 -19 -2 -12 -5z"/>
<path d="M2153 4043 c9 -2 23 -2 30 0 6 3 -1 5 -18 5 -16 0 -22 -2 -12 -5z"/>
<path d="M1953 4033 c9 -2 23 -2 30 0 6 3 -1 5 -18 5 -16 0 -22 -2 -12 -5z"/>
<path d="M2093 4033 c9 -2 23 -2 30 0 6 3 -1 5 -18 5 -16 0 -22 -2 -12 -5z"/>
<path d="M1888 4023 c6 -2 18 -2 25 0 6 3 1 5 -13 5 -14 0 -19 -2 -12 -5z"/>
<path d="M2033 4023 c9 -2 23 -2 30 0 6 3 -1 5 -18 5 -16 0 -22 -2 -12 -5z"/>
<path d="M1818 4013 c6 -2 18 -2 25 0 6 3 1 5 -13 5 -14 0 -19 -2 -12 -5z"/>
<path d="M1968 4013 c6 -2 18 -2 25 0 6 3 1 5 -13 5 -14 0 -19 -2 -12 -5z"/>
<path d="M2735 3985 c-110 -19 -209 -34 -219 -35 -11 0 -17 -3 -13 -6 4 -5
207 23 442 61 21 3 26 2 16 -4 -8 -5 -42 -13 -75 -17 -34 -4 -55 -9 -48 -11
25 -9 152 18 152 33 0 19 -24 17 -255 -21z"/>
<path d="M1763 4003 c9 -2 23 -2 30 0 6 3 -1 5 -18 5 -16 0 -22 -2 -12 -5z"/>
<path d="M1908 4003 c6 -2 18 -2 25 0 6 3 1 5 -13 5 -14 0 -19 -2 -12 -5z"/>
<path d="M1698 3993 c6 -2 18 -2 25 0 6 3 1 5 -13 5 -14 0 -19 -2 -12 -5z"/>
<path d="M1848 3993 c6 -2 18 -2 25 0 6 3 1 5 -13 5 -14 0 -19 -2 -12 -5z"/>
<path d="M1648 3983 c6 -2 18 -2 25 0 6 3 1 5 -13 5 -14 0 -19 -2 -12 -5z"/>
<path d="M1788 3983 c7 -3 16 -2 19 1 4 3 -2 6 -13 5 -11 0 -14 -3 -6 -6z"/>
<path d="M1573 3973 c9 -2 25 -2 35 0 9 3 1 5 -18 5 -19 0 -27 -2 -17 -5z"/>
<path d="M1718 3973 c6 -2 18 -2 25 0 6 3 1 5 -13 5 -14 0 -19 -2 -12 -5z"/>
<path d="M1668 3963 c6 -2 18 -2 25 0 6 3 1 5 -13 5 -14 0 -19 -2 -12 -5z"/>
<path d="M2773 3963 c9 -2 25 -2 35 0 9 3 1 5 -18 5 -19 0 -27 -2 -17 -5z"/>
<path d="M1618 3953 c7 -3 16 -2 19 1 4 3 -2 6 -13 5 -11 0 -14 -3 -6 -6z"/>
<path d="M2713 3953 c9 -2 23 -2 30 0 6 3 -1 5 -18 5 -16 0 -22 -2 -12 -5z"/>
<path d="M2570 3935 c-41 -8 -88 -13 -105 -13 l-30 0 30 8 c49 13 -3 10 -85
-5 -64 -11 -69 -13 -35 -15 39 -2 39 -3 10 -10 -16 -4 -25 -8 -18 -9 13 -1
333 48 348 54 21 8 -43 2 -115 -10z m-142 -22 c-10 -2 -26 -2 -35 0 -10 3 -2
5 17 5 19 0 27 -2 18 -5z"/>
<path d="M2195 3895 c-33 -7 -51 -13 -40 -13 11 -1 49 5 85 12 36 8 54 14 40
14 -14 0 -52 -6 -85 -13z"/>
<path d="M2205 3875 c-33 -7 -49 -13 -35 -13 14 -1 54 5 90 13 36 7 52 13 35
13 -16 0 -57 -6 -90 -13z"/>
<path d="M2093 3873 c9 -2 23 -2 30 0 6 3 -1 5 -18 5 -16 0 -22 -2 -12 -5z"/>
<path d="M2033 3863 c9 -2 23 -2 30 0 6 3 -1 5 -18 5 -16 0 -22 -2 -12 -5z"/>
<path d="M1930 3851 c-34 -7 -34 -7 19 -14 29 -5 56 -6 59 -2 3 3 -8 6 -24 6
l-29 1 30 8 c27 7 27 8 5 8 -14 -1 -41 -4 -60 -7z"/>
<path d="M2103 3853 c9 -2 23 -2 30 0 6 3 -1 5 -18 5 -16 0 -22 -2 -12 -5z"/>
<path d="M2033 3843 c9 -2 25 -2 35 0 9 3 1 5 -18 5 -19 0 -27 -2 -17 -5z"/>
<path d="M1800 3830 c-34 -7 -34 -7 -5 -8 17 0 44 4 60 8 27 7 27 8 5 8 -14
-1 -41 -4 -60 -8z"/>
<path d="M1913 3823 c9 -2 23 -2 30 0 6 3 -1 5 -18 5 -16 0 -22 -2 -12 -5z"/>
<path d="M1723 3813 c9 -2 23 -2 30 0 6 3 -1 5 -18 5 -16 0 -22 -2 -12 -5z"/>
<path d="M1858 3813 c6 -2 18 -2 25 0 6 3 1 5 -13 5 -14 0 -19 -2 -12 -5z"/>
<path d="M1663 3803 c9 -2 23 -2 30 0 6 3 -1 5 -18 5 -16 0 -22 -2 -12 -5z"/>
<path d="M1803 3803 c9 -2 23 -2 30 0 6 3 -1 5 -18 5 -16 0 -22 -2 -12 -5z"/>
<path d="M1580 3783 c0 -12 3 -14 8 -7 4 7 18 14 32 17 21 4 20 4 -7 6 -25 1
-33 -3 -33 -16z"/>
<path d="M1743 3793 c9 -2 23 -2 30 0 6 3 -1 5 -18 5 -16 0 -22 -2 -12 -5z"/>
<path d="M1683 3783 c9 -2 23 -2 30 0 6 3 -1 5 -18 5 -16 0 -22 -2 -12 -5z"/>
<path d="M1623 3773 c9 -2 23 -2 30 0 6 3 -1 5 -18 5 -16 0 -22 -2 -12 -5z"/>
<path d="M8904 4241 c-63 -41 -98 -71 -129 -111 -11 -15 -6 -12 14 7 38 39
135 106 182 127 26 11 29 15 13 15 -11 1 -47 -16 -80 -38z"/>
<path d="M8682 3783 c2 -9 10 -19 18 -21 13 -5 13 -3 1 11 -16 20 -2 23 19 5
12 -11 12 -10 1 5 -17 22 -44 22 -39 0z"/>
<path d="M8914 3744 c-18 -14 -18 -14 6 -3 31 14 36 19 24 19 -6 0 -19 -7 -30
-16z"/>
<path d="M8935 3730 c-3 -6 1 -7 9 -4 18 7 21 14 7 14 -6 0 -13 -4 -16 -10z"/>
<path d="M4635 4630 c-3 -5 1 -10 9 -10 8 0 18 5 21 10 3 6 -1 10 -9 10 -8 0
-18 -4 -21 -10z"/>
<path d="M4584 4604 c-18 -14 -18 -14 6 -3 31 14 36 19 24 19 -6 0 -19 -7 -30
-16z"/>
<path d="M3440 4905 c0 -8 5 -17 12 -21 7 -5 8 -3 3 6 -6 10 -4 12 8 7 10 -4
17 -1 17 6 0 7 -9 13 -20 14 -11 1 -20 -4 -20 -12z"/>
<path d="M3501 4898 c-9 -15 -10 -23 -1 -32 6 -6 10 -6 9 -1 -1 6 1 18 6 28
11 26 2 30 -14 5z"/>
<path d="M4820 4065 c0 -5 5 -17 10 -25 5 -8 10 -10 10 -5 0 6 -5 17 -10 25
-5 8 -10 11 -10 5z"/>
<path d="M7335 4712 c-5 -4 -17 -16 -25 -27 -11 -15 -7 -14 13 4 24 22 32 31
25 31 -2 0 -7 -4 -13 -8z"/>
<path d="M7210 4610 c-19 -16 -30 -29 -25 -29 6 0 26 13 45 29 19 16 30 30 25
30 -6 0 -26 -13 -45 -30z"/>
<path d="M6868 4623 c18 -2 30 -8 27 -13 -2 -4 2 -13 9 -20 12 -9 17 -7 26 10
6 11 16 17 22 14 7 -4 8 -3 4 4 -4 7 -30 11 -64 10 -36 -1 -45 -3 -24 -5z m56
-18 c-4 -8 -10 -12 -15 -9 -11 6 -2 24 11 24 5 0 7 -7 4 -15z"/>
<path d="M7074 4514 c-18 -14 -18 -15 4 -4 12 6 22 13 22 15 0 8 -5 6 -26 -11z"/>
<path d="M5991 3504 c0 -11 3 -14 6 -6 3 7 2 16 -1 19 -3 4 -6 -2 -5 -13z"/>
<path d="M6002 3460 c0 -14 2 -19 5 -12 2 6 2 18 0 25 -3 6 -5 1 -5 -13z"/>
<path d="M5185 4316 c-40 -17 -55 -37 -62 -80 -5 -30 -1 -40 25 -66 40 -39 97
-42 139 -6 24 21 28 31 26 71 -3 87 -48 116 -128 81z m23 -20 c-22 -9 -25 -15
-16 -24 9 -9 6 -12 -16 -12 -27 0 -28 -2 -24 -39 2 -22 0 -37 -4 -35 -14 9 -9
69 7 91 13 19 36 29 70 31 6 0 -2 -5 -17 -12z m19 -142 c-3 -3 -12 -4 -19 -1
-8 3 -5 6 6 6 11 1 17 -2 13 -5z"/>
<path d="M7832 4120 c0 -14 2 -19 5 -12 2 6 2 18 0 25 -3 6 -5 1 -5 -13z"/>
<path d="M7821 4074 c0 -11 3 -14 6 -6 3 7 2 16 -1 19 -3 4 -6 -2 -5 -13z"/>
<path d="M7070 3588 c-25 -96 -34 -124 -43 -135 -12 -17 32 -27 84 -20 49 6
76 29 100 82 17 37 17 42 2 65 -24 39 -44 50 -90 50 -41 0 -42 -1 -53 -42z
m88 -4 c31 -22 27 -51 -12 -90 -33 -33 -66 -45 -66 -24 0 28 35 130 44 130 7
0 22 -7 34 -16z"/>
<path d="M7258 3523 c-15 -54 -25 -99 -25 -99 1 -1 30 -4 65 -7 56 -5 62 -3
62 14 0 16 -7 19 -40 19 -44 0 -44 -1 -31 33 8 20 15 23 41 19 21 -3 35 0 41
9 15 24 10 29 -27 29 -31 0 -35 3 -32 22 2 18 10 22 43 22 29 1 41 5 43 19 3
15 -5 17 -56 17 l-59 0 -25 -97z"/>
<path d="M7451 3587 c-5 -12 -19 -56 -31 -96 -18 -60 -19 -75 -8 -82 20 -12
30 4 49 78 10 38 18 66 19 63 1 -3 9 -36 18 -75 15 -63 20 -70 43 -73 24 -3
27 2 47 70 37 126 37 128 14 128 -17 0 -24 -12 -38 -70 -10 -38 -21 -66 -25
-62 -3 4 -14 37 -24 75 -14 53 -22 67 -37 67 -10 0 -22 -10 -27 -23z"/>
<path d="M7700 3593 c-27 -10 -50 -36 -50 -57 0 -12 16 -35 37 -53 36 -31 37
-34 20 -47 -13 -10 -27 -12 -48 -6 -23 7 -31 5 -36 -7 -9 -22 17 -34 62 -29
73 9 102 82 45 114 -47 27 -35 58 22 54 22 -2 28 2 28 18 0 16 -6 20 -32 19
-18 0 -40 -3 -48 -6z"/>
<path d="M7854 3571 c-30 -19 -64 -81 -64 -120 0 -30 38 -70 74 -77 48 -9 93
18 117 69 26 58 24 89 -7 121 -32 31 -76 34 -120 7z m78 -28 c23 -21 23 -60
-2 -100 -22 -36 -58 -44 -80 -18 -19 23 -5 86 25 113 31 26 33 27 57 5z"/>
<path d="M7003 3320 c-12 -5 -26 -22 -30 -37 -10 -39 -10 -675 0 -746 6 -39
16 -66 33 -85 l25 -27 -15 31 c-26 53 -36 151 -36 347 0 173 1 187 18 187 10
0 26 -6 37 -14 37 -25 222 -77 340 -96 111 -18 191 -14 318 15 66 14 125 24
132 21 9 -3 12 0 9 8 -5 13 35 36 64 36 15 0 16 -12 10 -132 -8 -165 -25 -322
-39 -366 -16 -47 -65 -66 -234 -87 -226 -28 -585 -12 -585 26 0 5 -6 9 -12 9
-24 -1 34 -40 75 -51 60 -17 427 -17 579 0 198 21 215 39 228 240 5 69 9 189
9 266 1 77 5 158 10 180 6 22 11 81 13 132 2 72 0 95 -12 106 -12 12 -96 17
-430 26 -228 7 -431 14 -450 16 -19 2 -45 0 -57 -5z m622 -26 c201 -5 276 -10
292 -20 20 -13 21 -19 16 -116 -7 -134 -18 -160 -80 -188 -138 -61 -314 -94
-422 -79 -151 21 -406 96 -436 129 -14 16 -16 37 -13 145 2 98 6 128 18 136
10 7 75 8 185 5 94 -3 292 -9 440 -12z"/>
<path d="M7045 3260 c-3 -6 1 -7 9 -4 18 7 21 14 7 14 -6 0 -13 -4 -16 -10z"/>
<path d="M7088 3263 c7 -3 16 -2 19 1 4 3 -2 6 -13 5 -11 0 -14 -3 -6 -6z"/>
<path d="M7553 3243 c26 -2 67 -2 90 0 23 2 2 3 -48 3 -49 0 -68 -1 -42 -3z"/>
<path d="M7043 3110 c0 -25 2 -35 4 -22 2 12 2 32 0 45 -2 12 -4 2 -4 -23z"/>
<path d="M7385 3129 c-75 -43 -54 -134 32 -146 37 -5 46 -2 73 25 17 17 30 41
30 54 0 51 -88 94 -135 67z m37 -16 c-12 -2 -20 -8 -18 -11 2 -4 -7 -12 -20
-19 -13 -6 -24 -7 -24 -3 0 15 43 40 65 39 18 -2 17 -2 -3 -6z m-5 -88 c-9 -7
-14 -15 -10 -19 4 -4 -1 -4 -12 0 -45 17 -41 43 6 36 28 -4 30 -6 16 -17z"/>
<path d="M7053 2870 c0 -30 2 -43 4 -27 2 15 2 39 0 55 -2 15 -4 2 -4 -28z"/>
<path d="M7321 2678 c-1 -111 0 -200 2 -197 10 10 18 399 9 399 -6 0 -10 -80
-11 -202z"/>
<path d="M7523 2785 c0 -38 2 -53 4 -32 2 20 2 52 0 70 -2 17 -4 1 -4 -38z"/>
<path d="M7832 2820 c0 -14 2 -19 5 -12 2 6 2 18 0 25 -3 6 -5 1 -5 -13z"/>
<path d="M7822 2676 c-21 -197 -34 -212 -189 -222 -101 -7 -101 -7 -106 17 -4
23 -4 23 -6 2 -1 -16 -8 -23 -23 -24 -19 -1 -18 -2 7 -10 31 -9 90 -5 208 13
65 9 68 11 88 49 22 43 42 181 37 250 -2 30 -7 6 -16 -75z"/>
<path d="M7054 2515 c1 -33 6 -42 36 -59 31 -19 54 -21 210 -22 l175 -2 -160
8 c-225 11 -248 18 -258 85 -4 22 -4 20 -3 -10z"/>
<path d="M7165 2021 c-28 -4 21 -12 160 -24 110 -10 210 -17 222 -15 49 9 32
18 -33 18 -38 0 -108 4 -154 10 -142 16 -154 17 -195 11z"/>
<path d="M6130 3311 c-14 -4 25 -6 85 -4 145 5 165 11 40 11 -55 0 -111 -3
-125 -7z"/>
<path d="M6198 3073 c7 -3 16 -2 19 1 4 3 -2 6 -13 5 -11 0 -14 -3 -6 -6z"/>
<path d="M6148 3063 c6 -2 18 -2 25 0 6 3 1 5 -13 5 -14 0 -19 -2 -12 -5z"/>
<path d="M6035 3043 c-15 -8 -25 -16 -23 -18 5 -6 92 15 101 24 13 13 -50 8
-78 -6z"/>
<path d="M6081 2873 c1 -78 6 -74 12 10 2 31 0 57 -5 57 -4 0 -8 -30 -7 -67z"/>
<path d="M6073 2710 c0 -41 2 -58 4 -37 2 20 2 54 0 75 -2 20 -4 3 -4 -38z"/>
<path d="M6359 2617 c-4 -48 -12 -94 -19 -102 -8 -10 -9 -15 -2 -15 18 0 33
75 30 143 -3 61 -3 60 -9 -26z"/>
<path d="M6085 2499 c22 -4 54 -8 70 -7 22 0 19 3 -15 9 -60 10 -108 9 -55 -2z"/>
<path d="M6238 2483 c12 -2 32 -2 45 0 12 2 2 4 -23 4 -25 0 -35 -2 -22 -4z"/>
<path d="M5940 1974 c0 -7 52 -25 57 -20 2 2 -10 8 -26 14 -17 6 -31 9 -31 6z"/>
<path d="M5907 1889 c7 -7 15 -10 18 -7 3 3 -2 9 -12 12 -14 6 -15 5 -6 -5z"/>
<path d="M6275 1855 c28 -7 61 -13 75 -13 14 0 0 6 -30 13 -30 8 -64 14 -75
13 -11 0 3 -6 30 -13z"/>
<path d="M6085 1836 c48 -17 75 -19 75 -6 0 6 -11 10 -24 10 -13 0 -39 2 -57
5 -33 4 -33 4 6 -9z"/>
<path d="M4695 3680 c3 -5 8 -10 11 -10 2 0 4 5 4 10 0 6 -5 10 -11 10 -5 0
-7 -4 -4 -10z"/>
<path d="M6820 3915 c1 -5 6 -20 13 -33 l13 -22 29 30 c16 16 27 30 24 31 -32
5 -79 2 -79 -6z"/>
<path d="M4420 3736 c0 -3 9 -10 20 -16 11 -6 20 -8 20 -6 0 3 -9 10 -20 16
-11 6 -20 8 -20 6z"/>
<path d="M4550 3656 c0 -2 8 -10 18 -17 15 -13 16 -12 3 4 -13 16 -21 21 -21
13z"/>
<path d="M8473 3370 c-47 -28 -132 -137 -182 -231 -50 -95 -77 -129 -102 -129
-15 0 -17 -7 -14 -48 9 -100 63 -232 138 -337 28 -39 28 -39 21 -10 -4 17 -10
35 -14 40 -17 22 -42 134 -47 205 -11 152 68 338 205 482 42 44 39 55 -5 28z"/>
<path d="M5645 2816 c-3 -14 -7 -37 -10 -51 -3 -15 -10 -22 -19 -19 -10 4 -13
-2 -10 -21 1 -15 6 -30 10 -33 4 -4 4 1 1 11 -4 11 -1 17 7 17 9 0 18 20 24
58 10 57 8 88 -3 38z"/>
<path d="M5601 2667 c-1 -18 25 -77 35 -77 2 0 -1 10 -7 22 -6 12 -15 33 -20
47 -5 17 -8 20 -8 8z"/>
<path d="M2398 3503 c6 -2 18 -2 25 0 6 3 1 5 -13 5 -14 0 -19 -2 -12 -5z"/>
<path d="M2348 3493 c6 -2 18 -2 25 0 6 3 1 5 -13 5 -14 0 -19 -2 -12 -5z"/>
<path d="M2205 3469 c-41 -10 -53 -16 -30 -13 58 7 154 32 125 32 -14 0 -56
-9 -95 -19z"/>
<path d="M9363 3088 c-10 -4 6 -7 40 -6 31 1 55 3 52 6 -8 8 -72 8 -92 0z"/>
<path d="M6598 1618 c-2 -13 -1 -59 2 -103 5 -65 4 -82 -9 -92 -13 -12 -13
-13 1 -13 9 0 19 4 22 8 2 4 71 2 153 -5 97 -8 151 -9 158 -2 11 11 14 184 2
195 -7 8 -223 33 -288 34 -30 0 -37 -4 -41 -22z"/>
<path d="M6053 1438 c-1 -7 -6 -35 -11 -63 -6 -27 -8 -54 -4 -59 6 -10 31 82
32 117 0 19 -16 24 -17 5z"/>
</g>
</svg>
